<svg id="레이어_1" data-name="레이어 1" xmlns="http://www.w3.org/2000/svg" viewBox="0 0 186 125"><path d="M55.1,28.07a.44.44,0,0,1-.21.21c-.07,0-.4-.43-.5-.38s.34,1.09.25,1.13-.21,0-.3,0-.22,0-.31,0-1.13-1.89-1.21-1.84.37,1.17.28,1.21-.1.23-.18.27.15.73.06.77-.3-.2-.39-.15-1.26-2.17-1.35-2.13-.21,0-.29,0,.91,2.29.83,2.33-1.1-1.81-1.19-1.77.79,2,.7,2.06,0,.44-.07.49-1.1-1.82-1.18-1.77.78,2,.7,2.07-.28-.15-.36-.1-.79-1.2-.88-1.16.39,1.21.31,1.25-.6-.8-.69-.76.56,1.56.48,1.6-1.31-2.25-1.4-2.21-.19,0-.27.07.18.81.1.85.48,1.4.4,1.44-.57-.73-.65-.69-.36-.3-.44-.26-.7-1-.78-.95.54,1.53.45,1.57-.82-1.26-.91-1.22.51,1.45.43,1.5-1-1.64-1.1-1.6.82,2.09.74,2.14.26,1,.18,1-1.22-2.06-1.31-2,.48,1.4.39,1.44-.93-1.49-1-1.44,0,.4-.09.44.34,1.12.26,1.17S44,32,43.91,32s-.07.28-.16.32,0,.33-.13.37-.42-.42-.5-.38.33,1.11.25,1.15-.13.16-.22.2S42.12,32,42,32s.16.75.07.79,0,.47-.06.52-.41-.4-.49-.36.34,1.12.25,1.16S41,32.91,40.91,33s-.29-.17-.37-.13.52,1.5.44,1.55-.57-.72-.65-.68-.08.27-.16.31.25,1,.17,1-.5-.59-.59-.55-.3-.2-.39-.16.37,1.18.29,1.23-.2,0-.28.07-1.08-1.76-1.16-1.72-.14.14-.23.18,0,.41-.09.45,0,.45-.08.49.42,1.29.34,1.33-.73-1-.81-1-.63-.86-.71-.82,0,.36-.12.4.46,1.38.38,1.42,0,.41-.09.45.14.72.06.76l-.24.14c-.08.05-.46-.5-.54-.46s-.91-1.43-1-1.39.54,1.54.46,1.58-1-1.65-1.1-1.61,0,.34-.12.38.62,1.72.55,1.76-.59-.74-.66-.71.5,1.51.37,1.56-.46-.79-.63-.72.08.63,0,.67-.09.23-.18.27-1.27-2.57-1.36-2.53.36,1.31.27,1.35-.3-.22-.39-.18-.47-.58-.56-.54.35,1.22.27,1.26.44,1.38.35,1.42-1.41-2.56-1.49-2.52-.29-.15-.37-.11.41,1.29.32,1.33-.68-1-.77-.92.57,1.57.49,1.61.23.85.14.89-.83-1.21-.91-1.17-.3-.16-.38-.12-.34-.23-.42-.19.76,1.82.67,1.86-.47-.48-.55-.44.09.54,0,.58-.44-.42-.52-.37,0,.33-.1.38-.19,0-.27.09-.91-1.2-1-1.16.66,1.5.58,1.54-.78-.95-.86-.9.1.53,0,.58-.25-.06-.33,0,.18.65.1.7,0,.31-.1.36-1.05-1.32-1.13-1.27S26,41.75,26,41.8s-.62-.62-.7-.57.23.7.16.75-.06.25-.14.3-.88-1-1-.92.18.6.1.66.48,1,.4,1.07-.35-.19-.43-.13-.14.12-.21.17.49,1,.42,1.07-1.43-1.67-1.51-1.62-.69-.61-.77-.56,1.47,2.29,1.39,2.35-1.52-1.72-1.59-1.66.06.4,0,.46,1.23,1.89,1.16,1.95S22,43.84,22,43.89s.81,1.33.74,1.38-1.56-1.64-1.63-1.58.82,1.31.75,1.37-1.46-1.47-1.53-1.41.65,1.08.58,1.14.09.4,0,.46.31.65.24.71-1.68-1.65-1.75-1.58,1.58,2.08,1.51,2.14-.16.09-.23.15-1.06-.89-1.12-.82,1.09,1.47,1,1.53-1.65-1.51-1.71-1.44.8,1.13.73,1.19.62.91.56,1-1-.81-1.1-.75-.07.2-.14.27.51.76.45.83-.64-.38-.71-.31.46.69.39.76-1.54-1.22-1.6-1.15-.54-.25-.6-.18S18.09,49,18,49.09s-.39-.12-.46-.05-.18.09-.24.16.61.78.54.85-2.32-1.78-2.38-1.71.69.85.63.92.1.33,0,.41-.89-.49-.95-.42-.44-.11-.5,0,.36.54.3.62.08.3,0,.38-.15.12-.21.2.86.89.8,1-.88-.42-.94-.35.72.76.66.83.71.74.66.81-1-.52-1.1-.44-.43-.07-.48,0,1.13,1,1.08,1.06-2.28-1.3-2.33-1.22.07.28,0,.36,2,1.52,2,1.6-2.1-1.1-2.15-1-.84-.28-.89-.2,1.44,1.09,1.39,1.17-.44,0-.49,0,1.25.93,1.21,1-2-.92-2.06-.84-.74-.18-.79-.1,1.07.8,1,.88-.77-.18-.81-.1.52.49.48.57,1.65,1,1.61,1.12-1.9-.73-1.94-.65-.77-.14-.81-.06,1.07.71,1,.8.28.33.25.42-1.78-.57-1.81-.49S13.07,57.93,13,58s-.19.11-.23.19-.52,0-.55.07.29.3.26.39-.66-.06-.7,0-1.1-.21-1.13-.12.44.36.41.44S10,58.85,10,58.94s1.52.7,1.49.79-1.38-.25-1.41-.16,1.86.77,1.83.86.15.22.13.32-.32.09-.34.18-.74,0-.77.07,1,.45,1,.54-2.25-.37-2.28-.28S9,61.31,9,61.4s-.38.12-.41.21.14.24.12.34,2.15.63,2.13.73-.5.08-.52.18,1.1.38,1.09.47-.45.1-.47.2,0,.17,0,.27-.49.1-.5.2,1,.3,1,.39-1.87,0-1.88.06-1.14.1-1.15.19,2.76.38,2.76.48.15.16.15.26-1,.13-1,.23,1,.18,1,.27-2.65.2-2.65.3,2.28.13,2.28.22-.92.22-.92.31.44.16.45.25.43.15.44.24-2.44.41-2.43.5,2.86-.11,2.87,0S10,68,10,68.1s.77.08.79.18-1,.32-1,.42-.62.29-.6.38,1.45-.06,1.47,0,0,.18,0,.28.38.1.4.2-1.46.49-1.44.58-.75.38-.73.47.18.16.21.25,2.05-.31,2.07-.22.51,0,.54.14-2,.74-2,.83,1.11-.11,1.13,0,.67,0,.7.08-2.19.86-2.16,1,2.76-.67,2.79-.58-1.11.55-1.08.64-.39.33-.36.42,0,.19,0,.28-.68.45-.64.54,2.27-.63,2.3-.54-1.15.63-1.12.72.47,0,.5.1-.1.24-.07.33-.74.51-.71.6,1.85-.57,1.89-.48-.08.23-.05.31a2.77,2.77,0,0,1,.1.26c0,.08-.23.3-.2.39s-1.31.8-1.27.89-.24.32-.2.41,2.47-1,2.51-.88-2.48,1.41-2.44,1.49,1-.26,1-.18.91-.25,1-.16-1.37.92-1.33,1-.28.37-.24.45,1.35-.5,1.39-.41.49-.06.54,0-1.12.84-1.07.93,1.35-.57,1.4-.49-1.13.89-1.08,1,1.47-.67,1.52-.59.29,0,.34.11-1.44,1.13-1.39,1.21,1.72-.89,1.77-.82-1,.86-.91.94-.79.77-.73.85,1.22-.62,1.27-.54,1.2-.64,1.26-.56S15,81.36,15,81.44s-.91.92-.85,1,.78-.34.83-.27.73-.33.79-.25.43-.11.48,0,.83-.45.89-.38-.62.75-.56.82.59-.26.65-.19S15.92,83.53,16,83.6,17,83,17,83.05s.92-.58,1-.51-1.85,1.95-1.79,2l.22.2c.06.07,1-.68,1.06-.62s.67-.39.73-.32-.05.3,0,.37-1,1.26-.91,1.32,1.49-1.26,1.56-1.2.41-.17.48-.11-.11.38,0,.44.19.05.26.12.4-.18.47-.12-.12.4-.05.46.55-.35.62-.29S18.9,87.09,19,87.15s0,.29.08.35.35-.11.42,0,.42-.2.49-.14-.26.62-.18.68.12.17.19.23S22,86,22.06,86s-1,1.54-.89,1.6-.53,1-.46,1.07.18.09.25.15,1.53-1.75,1.61-1.7.19,0,.27.1-.39.85-.31.91.32-.14.4-.09-.47,1-.39,1,0,.31.1.36.75-.77.83-.72-.37.88-.29.93.19.07.27.12-.32.84-.25.89.81-.9.89-.85.67-.7.75-.65,0,.35.08.4.09.2.17.25.7-.79.78-.74.1.2.17.25-.37,1-.29,1-.68,1.52-.6,1.57.91-1.16,1-1.11-.48,1.2-.4,1.25,1.15-1.62,1.23-1.57,0,.46,0,.51-.69,1.61-.61,1.65,1.59-2.46,1.67-2.42-.52,1.33-.44,1.38.62-.75.7-.7.48-.51.56-.46-1,2.28-.93,2.32.51-.55.59-.5.63-.79.71-.75-.72,1.78-.64,1.82,1.11-1.72,1.19-1.68-.27.93-.18,1,0,.34.12.39.69-1,.77-.92.21,0,.29,0-.5,1.42-.41,1.46.32-.23.41-.19.59-.79.67-.75-.58,1.64-.49,1.68.08.27.17.31,1-1.69,1.08-1.65-.53,1.59-.44,1.63.79-1.28.88-1.24.1.23.19.27-.26,1-.17,1.06,0,.41.11.45,1.11-2,1.2-2,0,.44.09.48.33-.29.42-.25a2.67,2.67,0,0,1,.26.09c.09,0-1,2.69-.87,2.73s.44-.55.53-.51,0,.54.06.58.58-.88.66-.84-.12.77,0,.81.84-1.51.93-1.47-.56,1.8-.47,1.84.85-1.54.93-1.5-.14.82,0,.86-.11.73,0,.77.4-.47.49-.43.41-.5.5-.47l.26.12c.08,0,.51-.72.59-.68s-.19.93-.1,1,0,.55.06.58S37.92,98,38,98.08s1-1.82,1.07-1.78.05.36.14.4.58-.85.66-.81,0,.4.12.44-.57,1.76-.49,1.8.26-.11.34-.07.56-.79.65-.75-.36,1.23-.27,1.27.83-1.38.92-1.34.5-.62.58-.58-.1.67,0,.71-.08.62,0,.66.72-1.07.81-1-.5,1.48-.42,1.52-.25.92-.16,1,1.11-1.83,1.19-1.79-.29,1-.2,1.05.51-.59.6-.55-.09.59,0,.63.57-.68.66-.63.16.1.25.14-.2.77-.12.82,0,.46,0,.5-.31.93-.23,1,.85-1.13.93-1.08.44-.38.52-.33-.28.86-.2.91,1.1-1.47,1.18-1.42-.27.82-.19.87.4-.25.48-.2-1,1.87-.89,1.92.65-.67.73-.62-.58,1.21-.5,1.26.85-.93.93-.87-.39.88-.32.94.36-.19.43-.14.61-.52.69-.46.72-.66.8-.6.23,0,.3.08-1.09,1.72-1,1.78.24,0,.31.06,1.48-1.52,1.56-1.46l.23.18c.07.06-1.66,2.24-1.59,2.3s.73-.57.8-.51.89-.7,1-.64,0,.3.07.36.17.1.24.16-1.18,1.57-1.11,1.63.19.08.26.14,1.37-1.21,1.44-1.14,0,.23.11.29,1-.83,1.09-.77-1.18,1.59-1.11,1.65-.55.89-.48,1,.5-.27.58-.21.94-.77,1-.71.62-.42.69-.36-1.63,2.17-1.55,2.24,1.41-1.35,1.48-1.29,0,.36,0,.42-.43.82-.35.88,1.11-1.06,1.18-1,.71-.61.78-.55-.86,1.41-.78,1.47,1-1.08,1.11-1-1.33,2.13-1.25,2.19.43-.26.51-.21,1-1.06,1-1-1.06,1.94-1,2,.85-.93.93-.88.6-.63.68-.58-.64,1.47-.56,1.52-.11.66,0,.71,1.41-2.29,1.49-2.25-.64,1.75-.55,1.79.18.1.27.14.29-.16.37-.12.61-1.2.7-1.17.09.24.18.27.23-.27.32-.25.2-.23.29-.22-.16,2-.07,2,.32-1,.42-.94.06,1.62.15,1.63.27-1,.36-1,.2.6.29.6.21-.19.31-.19.17-.61.26-.62.14-.6.23-.61.17-.12.26-.13.07-.93.16-.94.22.38.31.37.2.16.29.14.13-.32.23-.34.28.7.38.69.3.75.39.73.22.18.31.17.19,0,.28,0,.24.37.33.36,0-1.65.05-1.66.16-.28.26-.29.44,2.09.52,2.08,0-2.06.06-2.07.22-.55.3-.55.21,1.66.29,1.67.06.19.15.21.5-.8.59-.76.7-.92.79-.87-1.2,2.66-1.11,2.71.56-.68.64-.64.19,0,.28.08,0,.44.08.48.38-.38.47-.34-.31,1-.23,1.07S67.48,109,67.56,109s-.59,1.57-.51,1.61.69-.92.77-.88-.62,1.61-.54,1.65.49-.52.57-.47-.08.59,0,.63,1.27-2.13,1.36-2.09.43-.49.51-.45-.31,1.07-.23,1.11.37-.4.46-.37.28-.25.37-.22S69.92,111,70,111s-.05.68,0,.71.38-.49.47-.47.64-1.52.73-1.49-.32,1.81-.23,1.83.25-.21.34-.19.35-.87.44-.85-.17,2.19-.08,2.2.36-1.1.45-1.09.13.91.22.92.3-2.07.39-2.07.15,2.14.25,2.14.18-1.49.28-1.5.16-.59.26-.59.25,1.53.34,1.53.28,1,.38,1,.23,0,.33,0-.08-2.35,0-2.37,0-.77.13-.79.23.45.32.43.12-.13.21-.16,0-.41.11-.43.24.35.33.31,1.11,2.25,1.2,2.21-.13-.86,0-.9-.31-.93-.23-1,.85.87.93.81-1-1.43-.9-1.49.27.12.33,0,.62.73.68.65c0,.09-1.29.57-1.25.65s1.26-.51,1.31-.43,1.49-.8,1.55-.73-1.85,1.58-1.79,1.65,0,.32,0,.39,1.87-1.36,1.94-1.29S78.33,112,78.4,112s1-.78,1.11-.72l.19.18c.07.07-.39.73-.31.79s.44-.26.51-.2-.45.94-.37,1,.09.25.17.31,0,.38.09.43,1.49-2.15,1.57-2.1-.67,1.57-.59,1.61.33-.22.42-.18.14.14.23.18.75-1.31.84-1.28-.61,2-.52,2,.22,0,.31,0-.16,1.09-.07,1.12.71-1.55.8-1.52.07.45.16.47-.17,1.4-.08,1.42.66-1.79.75-1.76.25-.33.34-.31.1.43.19.45.35-1,.45-1,.14.16.23.17.09.56.19.57.2-.21.29-.2,0,1.49.12,1.5.18.28.27.29.21-.15.31-.14.19.22.28.23.27-1.87.37-1.87.17.08.26.08.16,2.4.26,2.4.2-1.08.29-1.08.18-.82.27-.82.2.37.29.37.21.32.3.31.09-1.67.18-1.67.3,1.61.39,1.6,0-1.81.13-1.81.23.64.33.63.39,1.87.49,1.86.19-.08.28-.09.22.1.31.09.25.24.34.22.08-.76.17-.78-.1-1.61,0-1.63.43,0,.52,0-.22,1.48,0,1.54,0,.56.12.59.06.47.15.5,1-2.61,1.08-2.58-.37,2-.28,2,.52-1.21.61-1.19.12.27.21.29.46-1.19.56-1.17.13.16.22.18-.12,1.43,0,1.44-.1,1.54,0,1.55.53-1.84.62-1.82,0,1.36.06,1.38.42-1.53.51-1.51.18,0,.28,0,0,1.25.13,1.26.33-1.51.43-1.5,0,2.37.07,2.38.21,0,.3,0,.23-.42.32-.42.22-.43.31-.43.2-.18.29-.18.19-.2.28-.2.23,1.44.32,1.44.12-2.13.21-2.14.16-.35.25-.36.29,1.36.38,1.35,0-1.69.1-1.7.17,0,.26,0,.49,2.09.58,2.07.07-.81.16-.83l.28-.06c.09,0,.24.23.33.21s.33.47.42.45-.17-1.4-.08-1.42.75,1.84.84,1.81-.64-2.58-.55-2.61,0-.56,0-.59.18.08.27,0,.11-.1.2-.14.57.87.65.83.62.84.7.8-.76-1.81-.68-1.86,1.43,2.15,1.51,2.1.3.08.38,0-.58-1.27-.5-1.33,1,1,1,1-1.43-2.25-1.36-2.31,0-.21.1-.27,1.17,1.14,1.24,1.08,1,.81,1.07.74-1.64-2-1.57-2.06.69.45.76.38-.1-.32,0-.39.69.38.75.3,0-.35,0-.42.15.23.33.23.13-1.71.24-1.71.23,1.68.33,1.68.06-1.32.16-1.33.28,1.1.38,1.09.34.9.43.89,0-.91.13-.92.28.37.38.35.38.62.47.59-.36-1.86-.26-1.89,1,2.21,1,2.17-.32-1.44-.23-1.48-.44-1.4-.35-1.44,1.06,1.78,1.15,1.73-.16-.72-.08-.77.27.08.35,0,.62.53.7.47.47.22.54.16,0-.44,0-.5-1-1.38-.93-1.44-.53-.72-.47-.79,2.16,1.68,2.22,1.6.38,0,.44-.09-1.49-1.34-1.43-1.42-.88-.74-.83-.82,2.49,1.26,2.54,1.17-.63-1.9-.46-1.87.09,0,.19,0,.16-.07.26-.06-.12,2.54,0,2.55.24-.42.33-.41.24-.44.33-.43.09,1.37.18,1.38.33-1.7.41-1.7.26.69.28.69.11-.85.21-.86,0-1,.12-1,.63,2.67.72,2.66.28.17.37.15-.24-1.88-.15-1.9.44.87.53.85-.46-2-.37-2,.35.54.44.5,0-.37.11-.4.44.62.53.58.06-.27.15-.31.27.16.35.12,0-.39.08-.43,1.22,1.84,1.3,1.79-.44-1.18-.36-1.23.46.39.54.34.09-.25.16-.3-.11-.53,0-.59l.24-.16c.07,0,0-.33.07-.39s.27.07.35,0-.07-.4,0-.46-.3-.69-.23-.75.85.81.93.75.47.29.54.23-1.12-1.68-1-1.74.2,0,.27-.09l.81-.69c.08,0,.53,1.29.61,1.32s.11.24.2.27,0,.52.14.54.15.21.24.23.56-1.83.66-1.81,0,1.11,0,1.13-.1,1.92,0,1.94.58-3.13.68-3.12.13.1.23.1.06,1.36.15,1.37.25-1.46.34-1.45.14.53.23.53.16,2.17.26,2.17.16-2,.25-2,.14-.65.23-.66.23,1.15.32,1.14.07-1.18.16-1.19.19.32.28.31.42,1.88.51,1.87.27.37.36.35,0-.89.14-.91-.19-1.72-.1-1.74.88,2.91,1,2.89-.24-1.68-.15-1.71.58,1.21.67,1.18-.28-1.42-.19-1.45.64,1.09.72,1.06-.68-2-.6-2,1.35,2.27,1.44,2.23-.67-1.63-.6-1.68.72.75.8.69.54.31.62.25-.57-.89-.44-1,.83.61.9.53-.09-.4,0-.47-1.69-1.88-1.62-1.95.67.41.74.34.44.17.51.1-.05-.27,0-.35,1.41.91,1.47.83.6.2.66.12-1.79-1.57-1.74-1.65,1.82,1.06,1.88,1-1.28-1.1-1.22-1.18.07-.16.12-.24-.51-.52-.46-.6,1.31.55,1.35.47-.93-.71-.88-.8,1.82.72,1.86.64-.94-.68-.91-.77a2.68,2.68,0,0,0,.07-.27c0-.09.8.12.84,0s-1.4-.73-1.37-.82,1,.17,1.06.08-1.25-.57-1.22-.66a2.1,2.1,0,0,0,.06-.24c0-.09,2.35.39,2.37.3s-2.53-.74-2.51-.83,2.94.35,2.95.25-2-.5-2-.59.48-.13.49-.22-.62-.23-.61-.32,1.2-.12,1.2-.22-.19-.17-.19-.27.42.08.47-.08.3,0,.34-.12-2.29-1.16-2.25-1.25,1.74.6,1.79.52-.09-.25,0-.33-1-.91-.91-1,1.22.67,1.28.6a1.77,1.77,0,0,1,.22-.16c.06-.07.69.6.77.54s-1.36-2.2-1.28-2.25.93,1.08,1,1-.26-1.19-.17-1.22.44.44.53.41.18-.5.27-.51.31.38.41.37.19,2.06.29,2.06.35-2.7.44-2.69.25.18.35.2.32-.26.42-.24-.34,2.08-.25,2.1,0,.4.12.43.53-.9.62-.87-.08.23,0,.37-.57.74-.5.82,1.39-1,1.46-.94.28,0,.34.06-1.55,1.67-1.48,1.74,2.09-1.67,2.16-1.6-1.1,1.26-1,1.33,1-.68,1.07-.61,0,.27,0,.34-.39.62-.33.69-.37.62-.31.69.26,0,.33.07.65-.36.72-.3-1,1.21-.91,1.28,1.53-1.23,1.59-1.16.46-.19.53-.13-1.51,1.75-1.44,1.82.86-.6.93-.53.52-.26.59-.19-.31.57-.24.64.48-.23.55-.16.81-.56.88-.5-1.22,1.51-1.15,1.58.93-.69,1-.63-.62.92-.55,1,1-.82,1.1-.75.35-.1.42,0-1.36,1.71-1.29,1.77,1.17-1,1.23-.9,0,.3,0,.37-.85,1.19-.78,1.26,1.2-1,1.27-1,1-.87,1.11-.81-1.58,2-1.51,2.08,1.81-1.74,1.88-1.67-1,1.45-1,1.51-.39.73-.32.79,1.9-1.88,2-1.82-.64,1-.57,1.08.58-.39.65-.33-.74,1.15-.67,1.21,1-.85,1-.79-1,1.42-.89,1.48,0,.28.09.34,1.54-1.57,1.62-1.51.09.17.17.23-1.14,1.69-1.07,1.75.83-.72.9-.67,1-1,1.13-.95-.43.83-.36.89-.8,1.33-.73,1.38.58-.43.66-.38.27,0,.35,0-.64,1.16-.57,1.21.6-.47.67-.41.54-.4.61-.34.91-.92,1-.87-.76,1.36-.68,1.42,1.16-1.31,1.24-1.26-.76,1.4-.69,1.45-.27.73-.2.78.32-.12.4-.07,1-1.06,1-1-.58,1.19-.5,1.25,1.05-1.26,1.13-1.2-.87,1.66-.79,1.71.7-.74.78-.69-.58,1.28-.5,1.33-.13.58,0,.63,1.18-1.57,1.26-1.52-.33.92-.25,1,.55-.56.64-.52-.72,1.64-.64,1.68,1.22-1.77,1.3-1.72.5-.53.58-.49-.21.77-.13.82.51-.59.6-.55.3-.21.39-.17-.86,2.13-.78,2.17,1-1.65,1.1-1.61.3-.23.38-.19-.1.64,0,.68.22-.07.31,0-.11.7,0,.74.32-.31.41-.28.09.26.18.29-.26,1.23-.17,1.26.6-1.12.69-1.09-.5,2.07-.41,2.1.41-.58.5-.55.51-1.06.6-1,.07.44.16.46-.14,1.4-.05,1.42.81-2.65.9-2.63-.27,2.18-.18,2.2.49-1.56.58-1.54,0,.92.12.94,0,1.18.15,1.19.32-1.05.41-1,.28-1.3.37-1.29.14.65.23.65.17,1.65.26,1.65.23,0,.32,0,.16-1.18.25-1.18.09-1,.18-1,.29.93.38.91.1-.49.19-.51.1-.34.19-.36.24.31.33.29.57,1.24.66,1.21.09-.41.18-.44.31.2.39.16-.13-.83,0-.87.67,1.26.83,1.19-1-2.57-.88-2.62.56.79.65.74.1-.2.19-.24-.37-1.07-.28-1.11.41.42.5.38.13-.11.21-.16.58.64.67.6-.32-.85-.24-.9.77.88.85.83-.16-.59-.08-.64-.42-.92-.34-1,.94,1,1,1,.23,0,.31,0-.52-1-.45-1,1.15,1.18,1.23,1.13-1-1.5-.9-1.56.37.18.45.12,1.65,1.63,1.72,1.56-1.62-2.1-1.55-2.16,1.81,1.68,1.88,1.61-1.32-1.65-1.25-1.72.47.23.54.16.71.43.78.36-.07-.32,0-.39-.59-.77-.53-.84.38.09.44,0,1.38.87,1.44.8-1.18-1.17-1.12-1.25,1.59.94,1.64.86-1.67-1.43-1.62-1.5.86.36.91.28-.91-.8-.86-.88.4.05.44,0,1.49.63,1.53.55-1-.78-1-.86-.55-.47-.51-.55.25-.06.29-.15,1.48.46,1.52.37-1.8-.94-1.76-1,.28-.05.31-.14,2,.52,2,.43-1.66-.74-1.63-.83,2.44.52,2.46.43-.05-.25,0-.35-2.73-.84-2.71-.94,1,0,1,0-.29-.23-.28-.33-.52-.24-.51-.34.35-.11.36-.21.07-.16.08-.25.46-.14.47-.23.2-.17.2-.27,1-.17,1-.26S173,98,173,97.89s-1-.14-1-.24,1.09-.22,1.08-.31,1.48-.3,1.47-.4-1.57,0-1.58-.14.6-.26.58-.35-1,0-1-.15.62-.28.61-.37,1.23-.43,1.21-.52-.81,0-.83-.14.17-.24.15-.34-.27-.13-.3-.22-.4-.1-.42-.19,1.14-.53,1.11-.62-1.15.13-1.17,0,.13-.24.1-.33.58-.41.55-.5.09-.49.06-.58-2.13,1.25-2.23,1.11,1.61-1.41,1.55-1.49-1.49.84-1.54.75,1.07-1,1-1-1.06.49-1.12.41,1.23-1,1.18-1.09-1.46.71-1.52.63.79-.7.74-.78,0-.23,0-.31-.61.14-.65.06,1.15-.83,1.11-.92-2.57,1.15-2.62,1.07-.24-.11-.29-.2,2.57-1.44,2.53-1.53-2.83,1.09-2.87,1,2-1.09,2-1.18-2.27.72-2.31.63.9-.57.87-.66,1.34-.67,1.31-.76-1.34.24-1.36.15.69-.39.67-.49-1.85.26-1.87.17.45-.34.43-.43,1.91-.52,1.89-.62-1.27,0-1.28-.1-.42-.18-.42-.27.63-.23.63-.32-.21-.2-.2-.3.35-.16.37-.25,1.07,0,1.09,0a1.16,1.16,0,0,1,0-.18c0-.09-1.36-.63-1.32-.71s.95.23,1,.15-.79-.64-.74-.72.24-.1.29-.17-.8-.66-.69-.81,0-.15.05-.24,2.28,1.19,2.33,1.11,0-.26,0-.34-.71-.62-.67-.71,1,.28,1,.2-1.12-.76-1.08-.85,1.48.46,1.52.37-1.59-.89-1.55-1,1.82.52,1.86.44-1.81-.89-1.77-1,.27-.09.3-.18-.06-.2,0-.29.36-.08.38-.17-1.07-.46-1.05-.56,2.7.47,2.73.38-2.5-.74-2.49-.83-.32-.22-.3-.31,0-.15,0-.24.43-.09.44-.19,1.12,0,1.13-.14-.66-.23-.65-.33,1.11-.11,1.12-.2-.82-.22-.81-.31.25-.18.25-.27-1.3-.15-1.3-.24.42-.17.42-.27.79-.22.78-.32.28-.21.27-.3-.4-.14-.41-.23.55-.28.54-.37-.44-.11-.45-.2-1.38.11-1.4,0,.17-.19.14-.28,2.59-.88,2.57-1-.14-.19-.17-.28-2.55.61-2.58.53,1.29-.64,1.26-.72-.47,0-.51-.11.76-.51.73-.6-1.85.61-1.89.52,2.07-1.15,2-1.24.22-.34.17-.43-.57.06-.62,0-1.84.8-1.88.72S172,71.44,172,71.36s-.33,0-.38-.13-2.29,1.23-2.34,1.15S171,71,171,70.92s.15-.36.1-.43-.73.27-.78.19-1.62,1-1.67.91,1.51-1.39,1.45-1.47-.79.39-.85.32-.56.24-.62.17,1.12-1.21,1.06-1.28-.79.45-.86.38.46-.68.4-.75-.43.14-.5.08-.15-.12-.21-.19.2-.48.14-.55-1.71,1.5-1.77,1.44,1.32-1.66,1.25-1.73-1.6,1.48-1.67,1.42.59-.93.52-1-.86.72-.93.66,1.07-1.53,1-1.59-1.19,1.14-1.26,1.08-.15-.07-.23-.13,1.65-2.38,1.58-2.44-1.72,1.91-1.8,1.85,1.07-1.72,1-1.77-1.12,1.15-1.2,1.1-.64.37-.77.25,1.06-1.29,1-1.37.46-.59.4-.67-.16,0-.22-.13-.29,0-.34-.07-.8.31-.85.23-.8.24-.85.15,2.19-1.39,2.15-1.47-.27,0-.31-.1-.86.22-.9.13-.62.06-.65,0,.69-.44.66-.53.6-.36.57-.45-.16-.1-.19-.19.07-.17,0-.26-.24-.1-.26-.19-.87,0-.88-.1.23-.21.21-.3-.36-.13-.37-.23.91-.26.91-.35-1.69-.06-1.69-.16-.8-.17-.81-.27,1.37-.22,1.37-.31.87-.17.87-.26.46-.14.47-.23.14-.15.15-.24-2.92-.44-2.91-.54,1.4,0,1.41-.14-.87-.31-.86-.41,1.12,0,1.14-.12-.32-.24-.3-.34,1.22.07,1.24,0-.62-.31-.59-.4.6,0,.63-.13-.87-.41-.85-.5-.45-.33-.43-.42-.65-.41-.63-.5,2.7.66,2.73.57-2.2-.93-2.17-1,1.34.27,1.37.18.25-.1.28-.19.1-.16.13-.24-.9-.56-.86-.65.4,0,.43-.13-1.13-.7-1.09-.79,1.62.52,1.66.43-1.24-.79-1.2-.87-.28-.36-.24-.45,1.36.45,1.4.37,1.24.42,1.29.34-2.12-1.32-2.08-1.4.65.12.7,0,0-.22,0-.31,1,.33,1,.24-.66-.6-.61-.68-.37-.44-.32-.53,1.5.68,1.55.6-1.49-1.14-1.44-1.22,0-.21.09-.29.24-.48.29-.57,1.54,1.55,1.69,1.44.25,0,.33-.06.42.17.5.11-.46-.84-.39-.9,1.07.84,1.14.77-.23-.54-.16-.6-1.29-1.51-1.22-1.58.69.4.75.33.56.24.62.16.31,0,.37-.07.63.23.69.15-1-1-1-1.07-.42-.51-.36-.59-.34-.42-.29-.5.13-.1.18-.18.77.27.82.19-.16-.29-.11-.37,1.15.4,1.19.31-.19-.31-.15-.4-.39-.38-.35-.46.94.18,1,.1-1.14-.65-1.11-.74-.12-.22-.09-.31,2.19.51,2.21.42-.21-.29-.18-.38-2.46-.84-2.44-.94,1.71.24,1.73.14-1.19-.42-1.17-.52,1.2,0,1.21,0,.19-.17.2-.26-.19-.22-.18-.31.77-.13.78-.22.08-.21.09-.3-2.3-.28-2.3-.38-.15-.15-.15-.24,1.34-.18,1.34-.27-.33-.17-.33-.26,1-.25,1-.34a2.83,2.83,0,0,0,0-.29c0-.09-1.49,0-1.5-.12s2-.44,2-.53-2,.1-2,0,1.79-.5,1.78-.59-1.94.19-2,.09.27-.23.25-.32,1.88-.64,1.85-.73-1.76.26-1.79.16-.65,0-.67-.08,2.45-.93,2.43-1-1.53.28-1.56.19-1.5.32-1.53.23.75-.44.71-.53-.39,0-.42-.13,1.74-.88,1.7-1-1.48.41-1.51.32,2-1.07,2-1.16-2.71,1-2.75.92,1.41-.85,1.37-.94-1.12.34-1.16.25.87-.64.83-.72-.17-.12-.22-.21.84-.66.79-.74-1.75.74-1.79.66-.32,0-.36-.11,2-1.39,2-1.48-2.48,1.26-2.53,1.18,1.73-1.27,1.68-1.35-1.66.82-1.71.74.39-.47.34-.55,1.46-1.18,1.41-1.26-.46.07-.52,0-2.07,1.19-2.12,1.11.41-.51.36-.58-.24-.05-.3-.13.08-.28,0-.36.4-.51.34-.59,1.17-1.13,1.11-1.2-.67.32-.73.25-2.14,1.16-2.19,1.08.11-.36.07-.44,1.39-1,1.34-1.06.32-.32.28-.41-1.49.43-1.53.34,2-.93,2-1-1.71.39-1.73.3,1.18-.52,1.16-.61-2.66.46-2.68.36.86-.41.84-.5,0-.21,0-.3,1.1-.36,1.09-.45-1.32,0-1.33-.12-.75-.15-.76-.24.64-.26.64-.35-.66-.18-.67-.27,1.65-.27,1.65-.36S165,27,165,26.86s1.37-.2,1.37-.3-.62-.18-.62-.27.39-.18.39-.27-.29-.19-.29-.29-.77-.19-.77-.29-1-.2-1-.29,0-.19,0-.28.11-.18.11-.28,2.12-.17,2.12-.27-.24-.19-.24-.28,0-.2,0-.29-2.28-.13-2.29-.23.58-.19.58-.28a2.44,2.44,0,0,0-.06-.26c0-.1,1-.25,1-.34s1.56-.34,1.55-.43-.2-.2-.21-.29-1.87,0-1.88-.06,1.9-.49,1.89-.58-.8-.08-.81-.17-.51-.11-.53-.2.45-.31.42-.4-1.12.09-1.14,0-1.16.18-1.18.09,1.87-.8,1.84-.89.07-.24,0-.33-1.59.45-1.63.37-.25-.05-.29-.14,1.53-.95,1.49-1,.41-.47.36-.55-.45,0-.5-.07.15-.36.1-.44-2.16,1.26-2.21,1.18,1.48-1.3,1.43-1.37-.46.1-.52,0,0-.28,0-.35-.58.25-.64.19-.33.06-.4,0-.26,0-.33-.05,1.19-1.5,1.12-1.56-1.62,1.47-1.69,1.41,1.37-1.83,1.3-1.89-1.65,1.65-1.72,1.58.43-.8.36-.86-.21,0-.28-.08-.2-.05-.27-.11,0-.33-.06-.39-1,1.16-1.1,1.11,1-1.75.88-1.8-.48.4-.56.35,0-.29-.12-.34.34-1,.26-1.06-.92,1.3-1,1.26.06-.52,0-.56.36-1.25.27-1.29-.08-.38-.17-.42-.65,1.06-.74,1l-.27-.11c-.09,0-.12-.28-.21-.31s-.31.34-.4.31-.08-.48-.17-.5,0-.85-.13-.86-.31.41-.4.4-.38,1.1-.47,1.09-.18-.12-.27-.13-.19.11-.29.11-.17-.19-.26-.2-.18-.84-.27-.84-.23-.36-.32-.36-.14,1.51-.23,1.51-.17.16-.26.17-.09.69-.18.7-.27-.73-.36-.72,0,.91-.1.93-.49-1.55-.58-1.53,0,.89-.08.91-.42-.88-.51-.85.19,1.26.1,1.29-.94-2.25-1-2.22-.09.42-.17.45.23,1.18.14,1.22.09.68,0,.72,0,.35-.12.38-.54-.73-.62-.69.51,1.41.43,1.46-1.34-2.17-1.42-2.13.77,1.79.69,1.83-.27-.12-.35-.07-.7-.79-.78-.74.27.76.19.81.42.93.34,1-1.64-2.05-1.72-2,.4.89.32.95-.05.24-.12.3-.93-.87-1-.81.34.74.26.8-.65-.47-.72-.41,1,1.45.92,1.52-1.1-1-1.17-.9-.09.2-.16.26-.26,0-.33.08-.25,0-.32.09.11.41.05.47.64.9.57,1,0,.24-.07.31S145.07,16.92,145,17s.39.63.33.7,1.21,1.33,1.15,1.4-.63-.31-.69-.24.15.37.09.44-.19.08-.25.16-1-.55-1-.47.4.56.34.63-.11.15-.17.23.7.76.64.83-1.84-1.16-1.89-1.09.79.84.73.91,1,1,1,1.09-1.09-.59-1.15-.52-.46-.12-.51,0,.89.91.83,1-.08.17-.13.25-1-.54-1.07-.46-.21.07-.27.14.82.86.77.93-1-.5-1-.43-.18.1-.23.17.48.6.43.67,0,.26,0,.34.39.52.33.59-1.22-.68-1.28-.6.35.48.29.56-1.87-1.15-1.92-1.07,2.46,2,2.41,2.11S142,25,142,25s-1-.5-1.05-.42.64.69.59.77-.45-.1-.5,0,0,.24,0,.31-1-.47-1-.39,1.49,1.27,1.44,1.35.09.29,0,.36-1-.45-1-.38.47.55.42.63-1.38-.73-1.44-.65-.61-.19-.66-.11.89.83.84.91.82.76.76.84-.61-.19-.66-.11-.53-.13-.58-.05-1.66-.86-1.71-.79,0,.22-.08.3,2.48,1.8,2.43,1.88-1.4-.67-1.45-.59.88.77.83.85-.23.07-.27.15.09.27.05.35-1.72-.83-1.77-.75,0,.2-.08.28-.55-.1-.6,0,.34.42.29.5.44.46.39.54-.17.12-.22.2,1.2.86,1.16,1-1.85-.76-1.89-.68-.63-.08-.67,0-.11.18-.15.26-.23.13-.27.22,1.75,1,1.72,1.06-.3.08-.33.17-1.42-.37-1.46-.29,1.85.94,1.82,1-.65-.05-.69,0,0,.22,0,.31-2-.56-2-.48,2.19,1,2.15,1.13-2.16-.62-2.19-.54,2.23,1.07,2.2,1.16-1.77-.49-1.8-.41,1.21.7,1.18.79-.41,0-.44.13-1.08-.27-1.11-.18.19.28.15.37,1.69,1,1.65,1.12-2.52-1.07-2.56-1,2.43,1.54,2.39,1.62-2.48-1.2-2.53-1.11,1.57,1.17,1.52,1.25-.65-.18-.71-.1l-.16.24c-.05.07-.25.05-.3.12s1.09,1.16,1,1.23-.82-.4-.88-.33-1.15-.81-1.22-.75.13.37.06.44-.14.1-.21.16-.47-.27-.54-.21,1.2,1.76,1.13,1.82-.21.09-.29.14-.51-.33-.59-.28-1-1.1-1.07-1,.84,1.62.77,1.67-.7-.72-.78-.68.3.9.22.94-1-1.33-1-1.29.79,1.92.71,2-1-1.64-1.11-1.6-.06.29-.15.32-.24-.11-.32-.07-.38-.49-.47-.46-.07.27-.16.3,0,.61-.06.64-.18,0-.27.05a2.6,2.6,0,0,1-.25.1c-.1,0-.12.28-.21.3s-.43-1.09-.52-1.07,0,.95-.07,1-.17.06-.27.07-.07.75-.16.76-.13.63-.22.64-.43-2.23-.52-2.22-.16,0-.26,0-.1,1-.2,1-.14,1.44-.23,1.44-.22-.54-.31-.54-.22.92-.31.92-.19-1-.28-1-.17-.6-.26-.61-.13-.71-.22-.72-.34,1.61-.43,1.6,0-1.93-.07-1.94-.52,2.49-.61,2.48-.24-.06-.34-.07.08-1.15-.09-1.2,0-.67-.09-.7-.55,1-.65,1-.34.25-.43.21.66-2,.58-2-1,1.56-1.08,1.52-.1-.3-.18-.35-.45.22-.53.17.05-.5,0-.56-.59.22-.66.15-.35-.14-.4-.22.08-.48,0-.56.31-.5.28-.58-.76-.11-.79-.2-.38-.36-.39-.45.41-.38.42-.48.79-.17.82-.27-.07-.26,0-.35.4-.08.44-.17.89.24.94.16.6.2.65.12,0-.14,0-.22-2.16-1.81-2.1-1.89.43,0,.49,0-.13-.42-.06-.49.45.1.52,0,.55.29.62.22.87.53,1,.38-.68-.65-.63-.74-.78-.68-.73-.77,2.39,1.22,2.44,1.13-.5-.51-.45-.6.11-.16.15-.24-1.53-1-1.49-1.09,1.68.63,1.72.55-1.25-.79-1.21-.88,1.24.36,1.28.27.28-.1.31-.18.32-.1.35-.19l.09-.29c0-.09-2-.84-1.94-.93s0-.17,0-.26,2,.37,2.07.28.82,0,.84-.14,0-.25,0-.34-2.31-.55-2.29-.64.75-.08.76-.17.4-.16.4-.25.48-.2.48-.3-1.64-.09-1.65-.18.76-.23.74-.32,1.45-.48,1.43-.58-2.56.46-2.59.37,1.76-.74,1.73-.83.58-.52.54-.61-2.13.89-2.17.8.62-.55.57-.63-.34.07-.4,0,.49-.66.43-.73-1,.83-1.11.76.34-.6.27-.66-.29.12-.37.07-.62.74-.7.69.15-.49.07-.54,1-2.34.9-2.38-.28,0-.37,0-.31.15-.4.12-1,2.13-1,2.1.21-1.19.12-1.22-.2,0-.29,0,.2-1.64.11-1.67-.25.1-.34.08-.67,2.47-.77,2.46.2-2.23.1-2.24-.35,1.05-.44,1-.23.38-.33.37-.27.89-.36.88.06-2.64,0-2.65-.28,1.14-.37,1.13-.13-1.16-.23-1.16-.31,2.81-.4,2.81-.16-.44-.25-.45-.16-.91-.26-.91-.06-1.18-.16-1.18-.08.45-.24.4-.35.46-.45.42-.29.22-.38.18.61-1.74.52-1.78-1.24,2.1-1.32,2.06,1.07-2.33,1-2.37-.57.68-.65.63-.4.31-.48.26.47-.92.4-1-1.15,1.19-1.22,1.13-.68.42-.75.36,0-.36,0-.43.14-.44.08-.51.65-.76.59-.83-1.66.89-1.71.81,1.39-1.09,1.35-1.17-1.77.62-1.81.54.83-.62.79-.71-.09-.21-.12-.3-.43-.15-.45-.24.79-.34.78-.44-.29-.18-.3-.27-.08-.22-.07-.31.35-.16.36-.26-.66.11-.7-.06,1.21-.56,1.18-.66-1.28.33-1.32.24.31-.31.26-.39-.77.27-.82.19.55-.51.5-.59,1-1,1-1.09-.84.41-.9.34.08-.34,0-.41-.87.65-.94.59.72-1.11.65-1.17-1.44,1.59-1.52,1.54.78-1.37.7-1.43-1,1.25-1,1.2.09-.42,0-.46.55-1.5.47-1.54-.83,1.45-.92,1.41.2-.91.11-.95l-.25-.09c-.09,0,0-.62-.09-.64s-.46,1-.55,1,.3-2.09.2-2.11-.32.5-.42.49-.53,2-.63,2,.11-1.93,0-1.94-.27.63-.37.62-.09-1.1-.19-1.11S105.9,18,105.8,18s-.16-.29-.25-.29-.17-.87-.27-.87-.19,1.28-.28,1.28-.22-2.1-.32-2.09-.17.9-.26.9-.15.86-.24.86S104.08,19,104,19s-.26-1.14-.35-1.14-.07,1.15-.16,1.16-.46-2.47-.55-2.46-.22-.14-.32-.13-.16.29-.25.3-.17.21-.26.22,0,1.12-.11,1.14-.21-.16-.31-.14,0,.9-.1.92-.57-1.92-.66-1.9.12,1.55,0,1.57-.53-.14-.62-.12,1.38-.89,1.31-1.06-2.09.63-2.13.54,2.15-1.17,2.1-1.26-1.45.49-1.5.4-1,.36-1,.28.28-.34.23-.42-.67.26-.72.18,0-.13-.1-.21,1-1,1-1-.26,0-.32-.1-.5.21-.56.14.89-1.09.82-1.16-1.68,1.46-1.75,1.39.93-1.24.86-1.3-.29.05-.36,0-.66.59-.74.53-.44.38-.51.32.17-.51.1-.56,0-.35,0-.4.6-1.46.52-1.51-.79,1.12-.87,1.07.69-2,.6-2-1,1.83-1.08,1.8.47-1.8.38-1.83-.27.08-.36.05-.56,1.16-.65,1.13l-.26-.08c-.09,0,.06-1.16,0-1.18S94.62,14,94.53,14s.07-1.56,0-1.57-.27.58-.37.57-.12-.7-.21-.71-.29,1.3-.39,1.29-.09-1.81-.18-1.82-.22.07-.32.07-.2,1.25-.3,1.25-.22-1.42-.31-1.42-.11,2.12-.2,2.13-.2-.5-.3-.49l-.27,0c-.09,0-.21-.22-.3-.21s-.07.85-.17.86-.38-1.38-.47-1.37.15,2.07,0,2.08c.12,0-1.06-1.55-1.06-1.66s.93-.22.89-.33-.79.27-.84.18,1.7-1.34,1.64-1.42-1.11.54-1.17.46-.45.11-.51,0,.87-1,.81-1-.36,0-.43,0-.15-.13-.21-.2-1.09.73-1.15.66.51-.74.45-.81-1.18.88-1.25.81.89-1.13.82-1.2S89.52,9,89.45,9s-1.25,1-1.32,1-.42.21-.49.16-.37.82-.42.8-.11-.08-.2-.12-.1-.13-.19-.16S87.12,9,87,9a2.21,2.21,0,0,0-.27-.12c-.09,0-.2,0-.29,0s-.35.9-.45.89.12-2.06,0-2.08-.25.19-.34.18-.37,2.18-.46,2.17-.07-2.65-.17-2.65-.24.24-.33.25-.13,2.58-.23,2.58S84.28,9,84.19,9.05s-.25-.68-.35-.67S83.58,8,83.48,8s-.17.3-.26.32.06,1.41,0,1.43-.29-.53-.38-.51,0,.7-.11.72S82,8,81.88,8s0,.82-.07.85-.34-.41-.43-.38-.07.46-.15.5.54,2,.45,2.06-.88-1.79-1-1.76-.61-.94-.7-.91.16.88.07.92.34,1.21.25,1.25.24.89.15.94-1.06-1.75-1.15-1.71.84,2,.76,2.08S79,10.19,78.94,10.24s-.65-.78-.73-.73.73,1.69.65,1.73.07.47,0,.51S77.55,10,77.47,10s.56,1.27.48,1.32-.67-.69-.74-.64-.28-.06-.36,0,1.15,2.08,1.07,2.13-.43-.31-.5-.26-.93-1-1-1-.27-.06-.35,0,1,1.67.89,1.73-.71-.67-.79-.61-1-1-1-1S76.53,14,76.45,14,75.06,12.49,75,12.55s1,1.61.92,1.67-.74-.66-.82-.61.47.91.39,1-.28-.06-.35,0,.17.51.09.57-1.24-1.26-1.32-1.2,1,1.55.94,1.61-.37-.16-.45-.1-1.81-1.95-1.88-1.89-.28,0-.35,0,0,.31-.07.36,1.13,1.7,1.06,1.76-.46-.27-.54-.21-1-.93-1-.87.71,1.18.64,1.24.64,1.1.57,1.16-1.25-1.26-1.32-1.2,0,.25-.12.31-1.08-1.06-1.15-1,1.71,2.47,1.64,2.53-1-1-1.13-1,.5.93.42,1-1.26-1.31-1.34-1.25-.54-.39-.61-.34,1.75,2.57,1.68,2.63-.72-.62-.8-.56.26.63.18.69-1.86-2.11-1.93-2.05,1.55,2.34,1.48,2.39-.07.23-.15.29-1.91-2.22-2-2.16,1.3,2,1.23,2.09-.4-.21-.47-.15.2.58.12.64-.22,0-.29.08-1.64-1.89-1.71-1.83,1.24,2,1.17,2.05-.83-.8-.9-.74.25.67.18.72-.71-.65-.79-.6S67,21,66.9,21.08s-1.22-1.37-1.29-1.32-.33-.13-.4-.07S66.55,21.9,66.48,22s-.85-.87-.93-.82-1.21-1.39-1.29-1.34.61,1.19.53,1.24-.13.14-.21.2-.23,0-.31.05-.28-.08-.36,0,.78,1.47.7,1.53-.93-1-1-1,.25.71.18.76-1.08-1.26-1.15-1.21.12.53,0,.58-.25,0-.33,0,.95,1.8.87,1.85-.76-.82-.84-.77.46,1.06.38,1.11-.79-.88-.87-.82.42,1,.34,1.06-.7-.76-.78-.71.27.8.19.85-.74-.84-.82-.79-.24,0-.32,0-.29-.11-.37-.06.51,1.19.43,1.24-.47-.41-.55-.36-.75-.88-.83-.83-.12.16-.2.2-.57-.58-.65-.54.57,1.33.48,1.38-.3-.16-.38-.11.56,1.35.47,1.4-.65-.76-.73-.71-.54-.58-.62-.53-.43-.39-.51-.34.79,1.81.71,1.86-.9-1.26-1-1.21.57,1.42.48,1.47S56.68,26,56.6,26s-.09.24-.18.28-.68-.89-.76-.85.67,1.68.58,1.73-.05.32-.13.36-.11.21-.2.25-1.37-2.31-1.46-2.27.1.61,0,.65S55.18,28,55.1,28.07Z" style="fill:#eb8f00"/><path d="M77.08,107.41l.24,0C77.14,107.4,77.08,107.4,77.08,107.41Z" style="fill:#1c1b1f"/><path d="M175.25,103.61A2.21,2.21,0,0,0,177,101.4a2.94,2.94,0,0,0-.76-2,2.47,2.47,0,0,0,.32-1.07A2.26,2.26,0,0,0,176.7,96a2.36,2.36,0,0,0-.2-1.69,2.66,2.66,0,0,0-.43-1.84,2.29,2.29,0,0,0-1.24-2,1.87,1.87,0,0,0-.2-.4A2.59,2.59,0,0,0,174,88.3a2.15,2.15,0,0,0-1.07-1.24c0-.09,0-.17,0-.26a1.79,1.79,0,0,0,.16-.44l0-.19,0-.15a2.33,2.33,0,0,0,.87-1.3l.05-.07a2.49,2.49,0,0,0,.7-1,2.44,2.44,0,0,0,.49-1.48,2.68,2.68,0,0,0-.28-3.39,2.11,2.11,0,0,0-.31-1.89,2,2,0,0,0,.14-.55,2.32,2.32,0,0,0,.58-3,3.38,3.38,0,0,0-.64-.78,2.46,2.46,0,0,0-.6-1.94,2.29,2.29,0,0,0-1-1.26,2.36,2.36,0,0,0-1.41-1,2.34,2.34,0,0,0-.89-1l-.09-.07a2.29,2.29,0,0,0-1.11-1l-.14-.08a2.38,2.38,0,0,0-1.54-2.32,2.27,2.27,0,0,0-.7-1.44,1.79,1.79,0,0,0-.13-.32,2.12,2.12,0,0,0-.32-.68v0l.09-.13a2.41,2.41,0,0,0,0-2.37s0,0,0-.06a2.28,2.28,0,0,0,.73-2.69,2.38,2.38,0,0,0,1-2.43h0a2.21,2.21,0,0,0,2.45-1.85,2.59,2.59,0,0,0,1.08-2.77,2.78,2.78,0,0,0,.48-.76A2.36,2.36,0,0,0,174,44.92l-.11-.18a3.13,3.13,0,0,0,.38-.86A2.59,2.59,0,0,0,174,42a2.53,2.53,0,0,0,.1-2.18,2.85,2.85,0,0,0,.12-.71,2.3,2.3,0,0,0-.68-2.35,2.47,2.47,0,0,0-1.16-2.57h0a2.07,2.07,0,0,0-.92-1.95,2.47,2.47,0,0,0-1.12-1.56,2.4,2.4,0,0,0-.79-1.51,2.71,2.71,0,0,0-1.06-1.44,2.48,2.48,0,0,0,0-2.22.43.43,0,0,0,0-.11,2.58,2.58,0,0,0,.09-1.63,2.33,2.33,0,0,0,.38-2.67,2.67,2.67,0,0,0-1.23-1.88l-.08-.13a1.78,1.78,0,0,0-.16-.65,2.5,2.5,0,0,0-.84-2.37,2.26,2.26,0,0,0-1-.73,1.91,1.91,0,0,0-.71-1.38,2.61,2.61,0,0,0-2.44-1.15,2.68,2.68,0,0,0-1.13-1.38,2.43,2.43,0,0,0-2.57-1.24,2.32,2.32,0,0,0-2.56-.19,2.28,2.28,0,0,0-2.77.55c-1.22-1.29-3.1-.41-3.75.95a2.43,2.43,0,0,0-1.41.65,2.15,2.15,0,0,0-1.19.55,2.12,2.12,0,0,0-.92.55,2.67,2.67,0,0,0-1,1.05,2.59,2.59,0,0,0-.46.3,2.44,2.44,0,0,0-2,2.78,2.41,2.41,0,0,0-1.39,2.84,2.43,2.43,0,0,0-.43.58,2.4,2.4,0,0,0-2.81,3.11,1.94,1.94,0,0,0-.23.33,2.27,2.27,0,0,0-1,.77,2.2,2.2,0,0,0-1.76,1.62,3.09,3.09,0,0,0-.09,1.26,2.33,2.33,0,0,0-.92,1.62c-.26.18-.49.37-.69.53a2,2,0,0,0-.67,1.65,2.5,2.5,0,0,0-1,2.09,2.55,2.55,0,0,0,0,.55,2.34,2.34,0,0,0-.58,1.19,1.9,1.9,0,0,0-.38,1,2.48,2.48,0,0,0-.76.65,2.53,2.53,0,0,0-.73.58l-.16.08a2.24,2.24,0,0,0-1.71.33,2.33,2.33,0,0,0-1.2.16,2.69,2.69,0,0,0-1.73.4,2.45,2.45,0,0,0-.79-.22c0-.07,0-.14,0-.21a2.51,2.51,0,0,0,1.46-3,3.14,3.14,0,0,0,.66-1,2.22,2.22,0,0,0,1.13-2,3.17,3.17,0,0,0-.53-1.69,2.67,2.67,0,0,0,0-2.37,2.36,2.36,0,0,0-2.34-2.13h-.05l-.15-.13,0-.17a2.38,2.38,0,0,0-2.34-2.34h-.17a2.73,2.73,0,0,0-2.84-.45,2.46,2.46,0,0,0-1.36-.26,2.07,2.07,0,0,0-.42-.08,2.7,2.7,0,0,0-2.07-.83,2,2,0,0,0-.43-.05,2.34,2.34,0,0,0-.19-2.29A2.35,2.35,0,0,0,112.3,17a2.38,2.38,0,0,0-1.32-.71,2.39,2.39,0,0,0-1-.56,2.32,2.32,0,0,0-3.21-1.32,3.9,3.9,0,0,0-.57-.13,2.54,2.54,0,0,0-3-.06h0a2.08,2.08,0,0,0-1.45.05,2.31,2.31,0,0,0-2-1.7,2,2,0,0,0-.23-.6,2.28,2.28,0,0,0-2.6-2,3.66,3.66,0,0,0-.94,0,2.6,2.6,0,0,0-1.21,0,2.37,2.37,0,0,0-1.42-.49,2.19,2.19,0,0,0-1.11-.07l0,0A2.38,2.38,0,0,0,91.83,9a2.4,2.4,0,0,0-3-2.27,4.41,4.41,0,0,0-.57.25,2.2,2.2,0,0,0-2-1.55,2,2,0,0,0-2.33,0c-.12.08-.22.17-.32.25a2.59,2.59,0,0,0-.83.1,2.43,2.43,0,0,0-2.2.37,2.31,2.31,0,0,0-2.48,1.05,2.65,2.65,0,0,0-1.56.76,2.54,2.54,0,0,0-1,.89,2.29,2.29,0,0,0-.55.65,2.42,2.42,0,0,0-2.06,1.83,3.05,3.05,0,0,0-.69,0,2.42,2.42,0,0,0-2.22,1.6,2.45,2.45,0,0,0-1.86,1.27,2.33,2.33,0,0,0-.85.63,2.9,2.9,0,0,0-.68.53,2.52,2.52,0,0,0-.74.64,2.53,2.53,0,0,0-1.49,1.53,2.35,2.35,0,0,0-2.19,1.66,2.35,2.35,0,0,0-1.81,1.76,3.16,3.16,0,0,0-.2.54,2.12,2.12,0,0,0-.44.05h-.08l-.07-.05a2.55,2.55,0,0,0-3.35,1,2.32,2.32,0,0,0-1.14.82l-.16.06A2.34,2.34,0,0,0,52.2,25l-.07,0A2.16,2.16,0,0,0,51,24.9a2.76,2.76,0,0,0-2.16,1.35,1.83,1.83,0,0,0-.4.64l-.11.09a2.87,2.87,0,0,0-1,.11,2,2,0,0,0-.79.4,2.53,2.53,0,0,0-1.13.25,2.25,2.25,0,0,0-2.15,1.32,2,2,0,0,0-.79.71,2.41,2.41,0,0,0-2.16.71,2.45,2.45,0,0,0-1.72,1.11,2.57,2.57,0,0,0-1.86.52,2.61,2.61,0,0,0-2.16,1.36,2.32,2.32,0,0,0-1.75.69,2.47,2.47,0,0,0-2,.66,2.39,2.39,0,0,0-2.1.83,1.85,1.85,0,0,0-.82.9,2.18,2.18,0,0,0-.85.61,2.7,2.7,0,0,0-1.77,1,2.63,2.63,0,0,0-1.74,1,2.42,2.42,0,0,0-.85.56,2.42,2.42,0,0,0-2.55,1.6,2.51,2.51,0,0,0-1.74,1A2.09,2.09,0,0,0,17,44.48a2,2,0,0,0-.48.83,2.32,2.32,0,0,0-1.38.7,2.64,2.64,0,0,0-1.8,1.3,2.29,2.29,0,0,0-.91,2.53.14.14,0,0,1,0,.06,2.45,2.45,0,0,0-1.13.71A2.58,2.58,0,0,0,9.81,52.4a2.43,2.43,0,0,0-.76,2.14,2,2,0,0,0-.18.32,2.43,2.43,0,0,0-.61,2.64,2.23,2.23,0,0,0-.64,2l-.24.12a2.36,2.36,0,0,0-1.07,2.65,5,5,0,0,0,.4.87,2.47,2.47,0,0,0-.51,2.65,2.26,2.26,0,0,0,.1.81,2.5,2.5,0,0,0,.58,2.93A2.47,2.47,0,0,0,7.1,72a2.39,2.39,0,0,0,.83,2.28,2.3,2.3,0,0,0,1,1.58,2.21,2.21,0,0,0,.21.5,2.67,2.67,0,0,0,0,1.09,2.53,2.53,0,0,0,.43,1.47,2.28,2.28,0,0,0,1.46,2,2.62,2.62,0,0,0,.24.34,2.14,2.14,0,0,0,.59,1.61,2.45,2.45,0,0,0,2.05,1.82,2.1,2.1,0,0,0,.65,1.54l.21.2a2.91,2.91,0,0,0,.57.4,2.6,2.6,0,0,0,1.36.82,4.63,4.63,0,0,0,.09.49,2.53,2.53,0,0,0,1.37,1.56l.15.19a1.91,1.91,0,0,0,.81.53,2,2,0,0,0,.4.31l.25.15a2.34,2.34,0,0,0,1.1.32A2.38,2.38,0,0,0,23,93a2.61,2.61,0,0,0,1.45,1.15,2.6,2.6,0,0,0,2.27.68,2.55,2.55,0,0,0,2.24.73c0,.09.09.18.14.27A2.18,2.18,0,0,0,31.29,97a2.09,2.09,0,0,0,.47.3,2.18,2.18,0,0,0,2,1.18,1.87,1.87,0,0,0,.66.15,2.41,2.41,0,0,0,1.17.34,2.08,2.08,0,0,0,.32.12,2.43,2.43,0,0,0,2.77,1.28,2.49,2.49,0,0,0,1.35.52,2.36,2.36,0,0,0,2.05.92A2.6,2.6,0,0,0,44.24,103a2.29,2.29,0,0,0,1.94,1.32,2.05,2.05,0,0,0,1.16,1.36,2.26,2.26,0,0,0,1,1.1l.41.19a2.51,2.51,0,0,0,.54.63,2.52,2.52,0,0,0,2.48,1.5,2.63,2.63,0,0,0,.59.73,2.49,2.49,0,0,0,1.17,1.1,2.4,2.4,0,0,0,3,.53h.29l.18.12a2.4,2.4,0,0,0,3.51.53l.26-.14a5.46,5.46,0,0,0,.84-.71l.17.07a2.12,2.12,0,0,0,1.56.58,2.4,2.4,0,0,0,.66.11,2.43,2.43,0,0,0,.85.35,2.24,2.24,0,0,0,.58.38,2.63,2.63,0,0,0,1.8,1,2.3,2.3,0,0,0,1.55,0,2.32,2.32,0,0,0,1,.28,2.27,2.27,0,0,0,2.74.92h.3l.27,0a2.81,2.81,0,0,0,1.6.47,2.24,2.24,0,0,0,1.76-.84,1.94,1.94,0,0,0,1.17-.07,2.47,2.47,0,0,0,2.28,1.69,2.17,2.17,0,0,0,1.67,1.26,2.3,2.3,0,0,0,2.94-.15,2.23,2.23,0,0,0,1.18.32,2.23,2.23,0,0,0,3.33-.06,2.22,2.22,0,0,0,.82.19,2.08,2.08,0,0,0,1,.23,2.29,2.29,0,0,0,1.55,0,2.42,2.42,0,0,0,2.56.45,2.4,2.4,0,0,0,1.25.39,3.83,3.83,0,0,0,.6,0,2.48,2.48,0,0,0,2.84-.53,2.36,2.36,0,0,0,.83-.13c1.16.88,2.74.1,3.36-1.13l.45,0a2,2,0,0,0,1.64-.67,2.47,2.47,0,0,0,.79-.72,2.39,2.39,0,0,0,1.37-1.09l.22.05a2.34,2.34,0,0,0,3.19-1,2.27,2.27,0,0,0,2-1.23,2.22,2.22,0,0,0,1.54-.2l.34.14a2.36,2.36,0,0,0,2.81-1.4c1.44.42,3.28-.26,3.13-2.07a2.45,2.45,0,0,0,3.26.35,2.22,2.22,0,0,0,1.64-.3,2.17,2.17,0,0,0,1.09.16,2.37,2.37,0,0,0,2.71-.57,2.33,2.33,0,0,0,2.1-1.06,2.52,2.52,0,0,0,.51-.47,2.5,2.5,0,0,0,.83-1,2.32,2.32,0,0,0,1.89-2.13,2.21,2.21,0,0,0,.21-.8,2.58,2.58,0,0,0,.61-2.08v0A1.75,1.75,0,0,0,137,100a2.3,2.3,0,0,0,.62-1.48,1.87,1.87,0,0,0,.52.17,2.45,2.45,0,0,0,1.28,1.76,2,2,0,0,0,1.36.64l0,0a1.86,1.86,0,0,0,.74,1.38,2.5,2.5,0,0,0,1.8,1.47,2.31,2.31,0,0,0,1.35.83,2.23,2.23,0,0,0,1.25,1.09,2.75,2.75,0,0,0,.63.35l.11.13a2.33,2.33,0,0,0,2.4,1.6,2.3,2.3,0,0,0,.9.63,2.69,2.69,0,0,0,1.65,2,2.39,2.39,0,0,0,2.67.51,2.79,2.79,0,0,0,1.15.15,2.44,2.44,0,0,0,2.23,1.93,2.49,2.49,0,0,0,1.75.17,2.38,2.38,0,0,0,1.72.17c.21.05.43.09.63.12l.32,0a2.31,2.31,0,0,0,1.68-.67,2.21,2.21,0,0,0,1.08-.1c1.41.46,3.27-.57,3.11-2.2a1.75,1.75,0,0,0,0-.24,2.58,2.58,0,0,0,1-.54,2.28,2.28,0,0,0,.45,0,2.56,2.56,0,0,0,3.15-1.29,1.87,1.87,0,0,0,.46-.88,2.54,2.54,0,0,0,.74-.56,2.31,2.31,0,0,0,1.19-2.23,2.73,2.73,0,0,0,.27-1.18C175.17,103.77,175.21,103.69,175.25,103.61ZM39.94,37.84l.33-.07A2.25,2.25,0,0,0,41.41,37a2,2,0,0,0,.89-.69,2.47,2.47,0,0,0,.93-.38,2.52,2.52,0,0,0,1.58-.65l.26-.27a2.43,2.43,0,0,0,3.46-1,2.42,2.42,0,0,0,.9-.28,2.43,2.43,0,0,0,2.13-.92,2.59,2.59,0,0,0,.59-.32,1.9,1.9,0,0,0,1-.63,2.08,2.08,0,0,0,1.22-.47l.32,0A2.59,2.59,0,0,0,56.77,30a1.7,1.7,0,0,0,.8-.57A5.55,5.55,0,0,0,58,28.8a2.47,2.47,0,0,0,.7-.37h0A2.62,2.62,0,0,0,61,27.22a2.18,2.18,0,0,0,.88-.39,2.4,2.4,0,0,0,.53-.12,2.68,2.68,0,0,0,1.16-.4,2.59,2.59,0,0,0,1-.65,2.4,2.4,0,0,0,.53-.57,2.33,2.33,0,0,0,1.21-.8,2.41,2.41,0,0,0,2.44-1.87l.14-.22.24-.05a2.34,2.34,0,0,0,.74-.37,2.28,2.28,0,0,0,1.63-.91A2.4,2.4,0,0,0,73,19.6a2.45,2.45,0,0,0,.53-.42,2.42,2.42,0,0,0,1.39-1.31,2.41,2.41,0,0,0,1.86-1.08,2.67,2.67,0,0,0,.4-.55,2.48,2.48,0,0,0,1.32-1.19,2.27,2.27,0,0,0,1.34-1,2.53,2.53,0,0,0,2.1-.7,2.53,2.53,0,0,0,1.53-.93,2.27,2.27,0,0,0,1.77,0h.06a4.5,4.5,0,0,0,.73.55,2.28,2.28,0,0,0,.45.2,2.36,2.36,0,0,0,1,.5,2.47,2.47,0,0,0,.19.54c.14.26.32.48.48.72s.48,1.08.36.39c.35,2,3.2,2.17,4.21.69a2.06,2.06,0,0,0,.35-.12,2.29,2.29,0,0,0,1.49.38A2.09,2.09,0,0,0,96,17.76a2.55,2.55,0,0,0,.39.24c0,.08.07.17.11.25a1.85,1.85,0,0,0,1.12,1,2.55,2.55,0,0,0,.88.75,2,2,0,0,0,1.16.71l.62.12a2.49,2.49,0,0,0,2,.27,2.19,2.19,0,0,0,1.35.25,2.54,2.54,0,0,0,1.67-.48,2.39,2.39,0,0,0,1.65.42,2.51,2.51,0,0,0,.93.74,2.35,2.35,0,0,0,.67.34l.11.13a2.84,2.84,0,0,0,0,.71,2.55,2.55,0,0,0,.46,2.62,2.73,2.73,0,0,0,1,.9,2.5,2.5,0,0,0,2.1,1.35,2.21,2.21,0,0,0,2.18.87l.09.17a2.54,2.54,0,0,0,3,1,2.81,2.81,0,0,0,.71-.08,2.32,2.32,0,0,0,.37,0l.26.17a2.63,2.63,0,0,0,.84.79,1.84,1.84,0,0,0-.36,1.27,2.89,2.89,0,0,0,0,.29,1.94,1.94,0,0,0-.36.7,2.54,2.54,0,0,0-.64.67,2.52,2.52,0,0,0-.84,1,2.17,2.17,0,0,0-.47,2.29,6.31,6.31,0,0,0-.62.64,2.43,2.43,0,0,0,0,3.31l.18.2a2.33,2.33,0,0,0,1.16,2,3.77,3.77,0,0,0,.7.31,2.27,2.27,0,0,0,1.09.61,2.35,2.35,0,0,0,1.26.62,2.68,2.68,0,0,0,1.41.78,2.6,2.6,0,0,0,1.3,0,2.53,2.53,0,0,0,2.77-.33,2.15,2.15,0,0,0,2.27-1.13c.07-.16.13-.31.19-.47l.25-.13.12.12c1.15,1,3.31.7,3.87-.7a.1.1,0,0,0,.05,0,3.21,3.21,0,0,0,1-.31,2,2,0,0,0,.85-.87,2.3,2.3,0,0,0,1.89-2,2.21,2.21,0,0,0,1.14-1.6,2.78,2.78,0,0,0,.13-1.46,2.41,2.41,0,0,0,.5-1.4,2.45,2.45,0,0,0,.49-1.17,2.21,2.21,0,0,0,1.17-2.05,2.23,2.23,0,0,0,.59-.67,2.47,2.47,0,0,0,1.26-1.66,2.55,2.55,0,0,0,.38-.71,1.94,1.94,0,0,0,1.28-1.86A2.36,2.36,0,0,0,145,25.56a2.41,2.41,0,0,0,.42-1.21,1.07,1.07,0,0,0,.14-.16,2.2,2.2,0,0,0,.53-.48,2.41,2.41,0,0,0,1.45-2.18,2.52,2.52,0,0,0,.13-.47,2.39,2.39,0,0,0,1.08-1.76,2.59,2.59,0,0,0,.14-.29,2.38,2.38,0,0,0,.51-.24,2.08,2.08,0,0,0,2.44-.68A2.25,2.25,0,0,0,153.65,17a2.35,2.35,0,0,0,1.71-.39,2.42,2.42,0,0,0,.92-.74,2.22,2.22,0,0,0,.89-.09,2.66,2.66,0,0,0,.29.45A2.47,2.47,0,0,0,160,18.73l.21.13a2.31,2.31,0,0,0,.77,1.49,2.44,2.44,0,0,0,.89,1.87,2.3,2.3,0,0,0-.09,2.36A2.84,2.84,0,0,0,162,26a2.43,2.43,0,0,0-.47,2.1,2.46,2.46,0,0,0,.22,1,2.5,2.5,0,0,0,1.09,2.76,2.41,2.41,0,0,0,1.45,2.61,2.34,2.34,0,0,0,.76,1.16A2.51,2.51,0,0,0,166.23,37a2.61,2.61,0,0,0,.27,1.38,2.38,2.38,0,0,0,1.05,2.3l0,0a2.33,2.33,0,0,0,.08.46,2.54,2.54,0,0,0-.35,2.26,2.59,2.59,0,0,0-.11,2,3.07,3.07,0,0,0-.48.41,2.25,2.25,0,0,0-.66,1.46,3.07,3.07,0,0,0-.25.26,2.39,2.39,0,0,0-2.18,1.16,4.94,4.94,0,0,0-.68,2,2.35,2.35,0,0,0-.56.62,2.45,2.45,0,0,0-1,1.83,2.61,2.61,0,0,0-.14,1.49,2.3,2.3,0,0,0-.7,2.87.86.86,0,0,1-.07.1,2.56,2.56,0,0,0-.79,2.69,2.42,2.42,0,0,0,1.06,2.71,4.94,4.94,0,0,0,.79.39,3,3,0,0,0-.09.94,2.46,2.46,0,0,0,.6,3,2.3,2.3,0,0,0,1.51,2.26c.08.12.17.23.26.34a2.24,2.24,0,0,0,.82.88,3.29,3.29,0,0,0,.41.33,2.83,2.83,0,0,0,1.21.61,2.43,2.43,0,0,0,.78,1.4,2.58,2.58,0,0,0,.87.93,2.3,2.3,0,0,0,.38,1c0,.06,0,.11.05.16a2.63,2.63,0,0,0,.27,1.61,2.58,2.58,0,0,0,0,1.14,2.6,2.6,0,0,0-.21,1.84,2.56,2.56,0,0,0,.11,1,2.15,2.15,0,0,0-1.34,1.51,2.3,2.3,0,0,0,.15,1.71,2.28,2.28,0,0,0-.15,1,2.38,2.38,0,0,0-.57,1.36,2.76,2.76,0,0,0-.2,3.08,2.44,2.44,0,0,0,.5,1.62,2.71,2.71,0,0,0,.4.65,2.67,2.67,0,0,0,.86,1,2.6,2.6,0,0,0,1,.42s0,0,0,.07a2.41,2.41,0,0,0,1.32,2.47l-.06.24a2.06,2.06,0,0,0-.4,2.57c0,.1-.08.2-.11.3a2.42,2.42,0,0,0-.27,1.13,2.36,2.36,0,0,0-.49,1.77.13.13,0,0,0,0,.06,2.24,2.24,0,0,0-.58,1.3,2.12,2.12,0,0,0-.33.41,2.81,2.81,0,0,0-1.28.63,2.71,2.71,0,0,0-.35.24,2.34,2.34,0,0,0-1.48.88,2.5,2.5,0,0,0-1.87,1.15,1.84,1.84,0,0,0-.5.54,2.57,2.57,0,0,0-.48,0,2.25,2.25,0,0,0-1-.18,2.51,2.51,0,0,0-2.4-.18,2.39,2.39,0,0,0-1.39-1.44,2.76,2.76,0,0,0-1.45-.45,2.1,2.1,0,0,0-1.23-.21,2.58,2.58,0,0,0-1.15-1.2,2.39,2.39,0,0,0-1.86-1.38l-.17-.06a2.36,2.36,0,0,0-2.09-1.54l-.2-.11a2.23,2.23,0,0,0-1.17-1.41,1.59,1.59,0,0,0-.24-.2,2.4,2.4,0,0,0-1.86-1.08,2,2,0,0,0-.21-.2,2.6,2.6,0,0,0-1.57-1.54,2.23,2.23,0,0,0-1.42-1.1,2.27,2.27,0,0,0-2.25-2.31h0l-.18,0c0-.11,0-.2,0-.31a2.25,2.25,0,0,0-2.69-1.65,2.64,2.64,0,0,0-1.47.25,3.05,3.05,0,0,0-.6.06,2.22,2.22,0,0,0-1,.17,2.48,2.48,0,0,0-2.22,1.69,4.35,4.35,0,0,0-1.71,3.82,6.09,6.09,0,0,0-.6,2.81,2.63,2.63,0,0,0-.67,1,2.15,2.15,0,0,0-1.88,1.67,2.74,2.74,0,0,0-1.14,0,2,2,0,0,0-.92.06,2.24,2.24,0,0,0-.58,0,2.6,2.6,0,0,0-.88,0,2.31,2.31,0,0,0-.87,0,2.42,2.42,0,0,0-.38,0,2.41,2.41,0,0,0-3.23.06c-.48.4-1.24.59,0,.17a2.63,2.63,0,0,0-1.64,1.66,2.35,2.35,0,0,0-.39.83,2.42,2.42,0,0,0-.47,0l-.25,0a2.29,2.29,0,0,0-1.83.19,2.59,2.59,0,0,0-.68.09,2.55,2.55,0,0,0-1.68-.29,2.22,2.22,0,0,0-1.63.76,2.72,2.72,0,0,0-2.67,1.61,3.61,3.61,0,0,0-.23.36,3,3,0,0,0-.64.32,2.39,2.39,0,0,0-3.07.94,4.67,4.67,0,0,0-.18.45,2.64,2.64,0,0,0-1,.29,2.3,2.3,0,0,0-1.53,1l-.1,0a1.78,1.78,0,0,0-.85.21,2.31,2.31,0,0,0-1.44.89l-.33,0a2.1,2.1,0,0,0-1.62.67,2.53,2.53,0,0,0-1.53-.37,4.76,4.76,0,0,0-.72-.67,1.86,1.86,0,0,0-1.86-.19A1.9,1.9,0,0,0,92,111a2.54,2.54,0,0,0-.54-.09l-.52,0a2,2,0,0,0-.68.09,2.39,2.39,0,0,0-2.55,0,3.29,3.29,0,0,0-.49.26,2.23,2.23,0,0,0-1.06,0l-.39-.29a1.88,1.88,0,0,0-1.62-.27,2.39,2.39,0,0,0-1.46-.89,2.73,2.73,0,0,0-1.08-.43,2.55,2.55,0,0,0-2.91-1.74,2.25,2.25,0,0,0-.44.14c-.15-.07-1.17-.31-1.18-.34a2.74,2.74,0,0,0-1,.1,2.54,2.54,0,0,0-1.7.12,2.07,2.07,0,0,0-1.3.6,2.47,2.47,0,0,0-1.68-.79A2.19,2.19,0,0,0,68.6,107l-.16-.06A2.28,2.28,0,0,0,65.66,105a2.51,2.51,0,0,0-2.73.33,2.35,2.35,0,0,0-.44.17,2,2,0,0,0-.62-.18,2.24,2.24,0,0,0-2.46.26,2.4,2.4,0,0,0-1.32-.28,2.51,2.51,0,0,0-.93-.32,2.64,2.64,0,0,0-.44-.74,2.41,2.41,0,0,0-1.94-1.23l-.06-.07a2.5,2.5,0,0,0-2.33-2.07,3.1,3.1,0,0,0-1.1-1.46l-.23-.18a1.55,1.55,0,0,0-.74-.3,2,2,0,0,0-.67-.31,2.57,2.57,0,0,0-.69-.12l-.06-.13a2.42,2.42,0,0,0-3.07-1.92c-.14-.1-.29-.21-.46-.31a2.66,2.66,0,0,0-.7-.26h0a2.2,2.2,0,0,0-1.59-1.11,2.19,2.19,0,0,0-1.38-.42,2.34,2.34,0,0,0-1.83-.8,2.38,2.38,0,0,0-2.21-.48,2.58,2.58,0,0,0-.66-.43,2.57,2.57,0,0,0-1.58-1.46l-.14,0a2.6,2.6,0,0,0-2-.22l-.36-.13-.32-.17a2,2,0,0,0-1.18-.77h-.11l-.15-.09a2.47,2.47,0,0,0-2.28-1.67A3.2,3.2,0,0,0,28,88l-.06-.1a2.45,2.45,0,0,0-2.79-1,2.33,2.33,0,0,0-.79-1.42,2.43,2.43,0,0,0-1.56-1.62,2.46,2.46,0,0,0-1.83-1.38,2.6,2.6,0,0,0-.71-.39,2.49,2.49,0,0,0-1-1.51,2.36,2.36,0,0,0-.9-1,2.47,2.47,0,0,0-1.23-1.28,3.45,3.45,0,0,0-.28-.26,2.62,2.62,0,0,0-.91-.84,2.52,2.52,0,0,0-.75-3,2.6,2.6,0,0,0-.37-.83,2.38,2.38,0,0,0-.22-.79,2.33,2.33,0,0,0-.45-1.62,2.65,2.65,0,0,0-.71-1.65,2.05,2.05,0,0,0-.1-.48,2.46,2.46,0,0,0,0-2.07,2.72,2.72,0,0,0,.2-.63,2,2,0,0,0,.09-1,2.44,2.44,0,0,0,0-1.23,2.13,2.13,0,0,0,0-.87,2.35,2.35,0,0,0,.66-1.7,2,2,0,0,0,0-1,2.15,2.15,0,0,0,.3-.48l.11-.08a2,2,0,0,0,.67-1.43,2.48,2.48,0,0,0,.57-1.5,2.18,2.18,0,0,0,.41-.82,2.47,2.47,0,0,0,1.21-1.53.6.6,0,0,1,.06-.11,2.2,2.2,0,0,0,.72-1.88,2.1,2.1,0,0,0,1.52-1.27,2.47,2.47,0,0,0,1-.77,2.59,2.59,0,0,0,1.48-1.46,2,2,0,0,0,.62-1.31l0,0a2.73,2.73,0,0,0,.56-.15,2.49,2.49,0,0,0,1.59-.91,2.6,2.6,0,0,0,1.79-2.4,2.55,2.55,0,0,0,1.44-.79,2.55,2.55,0,0,0,.83-.4,1.87,1.87,0,0,0,.74-.18A2.47,2.47,0,0,0,31,42.29a2.45,2.45,0,0,0,.83-.27,2.45,2.45,0,0,0,2.27-.75A2.76,2.76,0,0,0,34.8,41a2.22,2.22,0,0,0,1.71-1,2.43,2.43,0,0,0,1.29-.32A3,3,0,0,0,39,38.44,2.26,2.26,0,0,0,39.94,37.84Zm132,39.7v0h0ZM28,40.4h0a.11.11,0,0,0,0,0Z" style="fill:#1c1b1f"/><path d="M36.51,48.49c-2.69-1.33-5.07,2.71-2.36,4a3.5,3.5,0,0,1,.54.29.29.29,0,0,0,0,.09c0,.49.24.75,0,1.25-.4.82-1.5,1-2.26,1s-2,0-2.42-.58a1.58,1.58,0,0,1,.9-2.28c2.77-1.09,1.56-5.62-1.25-4.52C28,48.48,26.8,49,26,50.69a7.34,7.34,0,0,0-.71,4.37c.61,3.19,3.44,4.78,6.48,4.81S37.62,59,39,56.09a6.57,6.57,0,0,0,.33-4.22A4.55,4.55,0,0,0,36.51,48.49Z" style="fill:#b25e00"/><path d="M64.72,58.46a3.9,3.9,0,0,0-.47-1.27A3.7,3.7,0,0,0,63.14,56a2.41,2.41,0,0,0-1.52-1.62c.13-.18.25-.37.37-.57a5.51,5.51,0,0,0,.49-1.11,2.06,2.06,0,0,0,.33-.33,2.7,2.7,0,0,0,.68-1.66c0-.36-.08-.73-.13-1.09,0,.41.1.45.17.12.49-2.32-.49-3.75-1.75-5.59-.54-.8-.68-1.26-1.14-2a2.19,2.19,0,0,0-1.71-1.06,2.34,2.34,0,0,0-.26-.34c-2.05-2.22-5.36,1.1-3.31,3.31-.65-.7-.38-.37,0,.3a3.1,3.1,0,0,0,.75.86,2.05,2.05,0,0,0,1.13.42c.35.6.72,1.19,1.14,1.78a2.14,2.14,0,0,1,.6,1.11c0,.24-.24.62-.28.88a1.71,1.71,0,0,0,0,.32,1.74,1.74,0,0,0-.33.41c-.23.39-.22.86-.43,1.26a2.43,2.43,0,0,1-1.88,1.3c-2.19.48-2.28,4.1,0,4.51a6.26,6.26,0,0,1,1.44.66,2.83,2.83,0,0,0,.75.18,2.56,2.56,0,0,0,1,.52,1.8,1.8,0,0,0,.36.58l.47.37.08,0c0,.29,0,.7,0,.77.11.41.54.78.59,1.19a3.8,3.8,0,0,1-.52,2c0-.09-.66.44-.81.59a1.87,1.87,0,0,0-.26.33,2.17,2.17,0,0,0-.66.23l-.28.19-.45-.06c-2.27-.28-3.26,3.45-1.18,4.36l.55.25a3.23,3.23,0,0,0,.13.8c.21.73.15,1.4.34,2.12a1.82,1.82,0,0,0,.1.35c-.09.27-.25.55-.31.8a9.57,9.57,0,0,0-.25,1.76,5.8,5.8,0,0,0-.47.93l-.72.52c-2.8-1-4,3.52-1.2,4.53a3.29,3.29,0,0,0,3.35-.32,10.91,10.91,0,0,0,2.34-1.79,3,3,0,0,0,.52-1.32c-.08.44.17.09.5-.52.45-.85.27-1.87.52-2.76a5.87,5.87,0,0,0,.3-3c-.14-.8-.38-1.66-.49-2.46,0,.18.07-.12.09-.42a2.07,2.07,0,0,0,.42-.31,2.85,2.85,0,0,0,.6-.89l.13-.07c1.15-.7,1.94-2.7,2.16-4a11.7,11.7,0,0,0,.26-2.13,7.41,7.41,0,0,0-.71-2.16C64.81,59.36,64.76,58.7,64.72,58.46Z" style="fill:#b25e00"/><path d="M69.22,35.75Z" style="fill:#b25e00"/><path d="M74.91,88a5.78,5.78,0,0,0,.55-.75h0a4.45,4.45,0,0,0,1.26-1.53c.1-.29.13-.43.1-.44a2.45,2.45,0,0,0,.29-.35,5.29,5.29,0,0,0,.81-1.63,6.16,6.16,0,0,0-.09-1.52,11.11,11.11,0,0,0,.21-1.38A8.62,8.62,0,0,0,78,78.58a2.07,2.07,0,0,0-1.23-1.65,2.5,2.5,0,0,0-.24-.65,3.64,3.64,0,0,0,.84-.7,10.55,10.55,0,0,0,.73-1.3,2.16,2.16,0,0,0,.72-.48,2.53,2.53,0,0,0,.83-1.23,3,3,0,0,0,.07-1.08c-.27.51-.25.43.06-.23a3.28,3.28,0,0,0,0-1.8A3.49,3.49,0,0,0,80,67a3.21,3.21,0,0,0-1.5-1.78c0-.13,0-.27-.07-.41a2,2,0,0,0-.27-.62c.12-.13.22-.26.33-.4a10.71,10.71,0,0,0,1-1.19c.07-.11.53-1.18.33-.92.61-.95,1.3-1.49,1.37-2.78q0-.26,0-.24a2.87,2.87,0,0,0,.69-.7,2.6,2.6,0,0,0-.35-3.28h0a3.23,3.23,0,0,0-.25-1A2.65,2.65,0,0,0,80.47,51s-.74-.8-.81-.71c-.09-.39,0-.85-.12-1.25a2.33,2.33,0,0,0-1.63-1.64,2.61,2.61,0,0,0-.87-.19.77.77,0,0,0-.1-.15l-.21-.23a1.05,1.05,0,0,0,.11-.07,3.76,3.76,0,0,0,1.54-4.21,1,1,0,0,0,.13-.23,2.46,2.46,0,0,0-.36-2.84,2.65,2.65,0,0,0-.53-.42,2.2,2.2,0,0,0-.22-.53l0-.05c0-.08,0-.17-.05-.27a2.8,2.8,0,0,0-1.23-2.1,4.49,4.49,0,0,0-2.77-2.69,2.21,2.21,0,0,0-.5-.7c-2.22-2-5.54,1.27-3.31,3.31a3.11,3.11,0,0,1-.29-.31c0,.07.12.19.24.42a3.73,3.73,0,0,0,.46.73,2.58,2.58,0,0,0,1.77.93,3.86,3.86,0,0,0,.41,1,2.11,2.11,0,0,0,.74.72,10.28,10.28,0,0,0,.35,1.32c.1.28.18.54.29.77A2.53,2.53,0,0,0,73.62,43a3.94,3.94,0,0,0-.48.31c-.78.61-1,1.15-1.89,1.65C69,46.1,70.31,49,72.38,49.26l.16.16a6.22,6.22,0,0,0,.65.45c-.07,0,.26.5.37.63a4.9,4.9,0,0,0,1.61,1.25l.07,0a3.28,3.28,0,0,0,.38,1,3.62,3.62,0,0,0,.77.85,2.46,2.46,0,0,0,0,.28,6.43,6.43,0,0,0,.39,1.24c.11.46.07.8.17,1.19l0,.07a5.41,5.41,0,0,0-.44,1.09c-.07.29-.24,1-.12,1a6.52,6.52,0,0,0-.48.59,7.28,7.28,0,0,0-.44,1c0-.12-.49.42-.67.62a3.88,3.88,0,0,0-1.51.45,2.83,2.83,0,0,0-.69.61h-.09c-2.15,0-3.42,3.4-1.18,4.37a19.72,19.72,0,0,0,2,.83,3.33,3.33,0,0,0,.7.55c0,.09.08.19.12.26a2.34,2.34,0,0,0,1,.87,2.29,2.29,0,0,0,0,1.55,2.29,2.29,0,0,0-.06.54l-.07.05a10.3,10.3,0,0,0-1,1.5,2.3,2.3,0,0,0-.94.3l-.09.06a2.23,2.23,0,0,0-1,.06c-.6.24-.75.31-.45.19a2.36,2.36,0,0,0,0,4.5,1.65,1.65,0,0,0,.23.7,2,2,0,0,0,.66.66,2.34,2.34,0,0,0,.45,1,3.32,3.32,0,0,0,.53.53,11.18,11.18,0,0,0,0,1.92c-.26.44-.52.83-.74,1.3a3.24,3.24,0,0,0-.46.37s-.82.92-.55.75a3.34,3.34,0,0,0-1,.9l-.08.13-.14,0a3.61,3.61,0,0,0-1.43.44,5.71,5.71,0,0,0-.88.49c-2.56-.51-3.55,3.65-.86,4.62,1.23.44,2.44.58,3.45-.43.07-.09.14-.19.22-.28h.53a3.93,3.93,0,0,0,3-1.93l.11-.23A3.49,3.49,0,0,0,74.91,88ZM81,58.71v0h0Zm-9.5,25.93h0ZM77.79,74.4l.27-.1C78,74.44,77.93,74.47,77.79,74.4ZM72,48.72s0,0,0,.08S71.93,48.74,72,48.72Z" style="fill:#b25e00"/><path d="M89.56,84.44a4.74,4.74,0,0,0,.11-.82l.09-.08a2.42,2.42,0,0,0,1.06-1.48,2,2,0,0,0,1.3-1.36,3.4,3.4,0,0,0,.1-2.32,4,4,0,0,0-.13-3.08,3.13,3.13,0,0,0,0-1.26,2.16,2.16,0,0,0-.22-.49,5,5,0,0,0,1.34-2.12l0,0a2.42,2.42,0,0,0,.7-.79,4.2,4.2,0,0,0,.55-2.06,2.53,2.53,0,0,0-.74-2,5.35,5.35,0,0,0-.67-.49c-.06-.17-.12-.33-.19-.49h0a3.47,3.47,0,0,0,1.52-3,2.06,2.06,0,0,0,.4-.52c.39-.72.15-1.32.28-2.05.08-.44.43-.87.49-1.39a2.92,2.92,0,0,0-.32-1.6,6.25,6.25,0,0,0-1.44-4.37,7.67,7.67,0,0,0-1.51-1.09,5.17,5.17,0,0,0,2.2-2.1A4.8,4.8,0,0,0,95.41,46c0-.15,0-1.37-.07-1.05,0-.43.11-1,.12-1a4.63,4.63,0,0,0-.06-3.43c-.14-.2-.3-.4-.45-.6s-.25-.32,0,0a8.72,8.72,0,0,0-.47-1.89,6.81,6.81,0,0,0-1-1.36c.16.15-.43-.82-.46-.87a3.1,3.1,0,0,0-1.85-1.24c-.26-.09-.54-.16-.81-.23l-.14-.12c-2.22-2-5.54,1.27-3.31,3.31a6.45,6.45,0,0,0,2.56,1.41c.18.28.37.57.56.89a10,10,0,0,1,.51,1.76,2.75,2.75,0,0,0,.44.85l-.1.24a10.39,10.39,0,0,0-.23,2.1c0,.64.17,1.34.15,2,0-.41-.33.11-.57.54a3.47,3.47,0,0,0-1.17.65,14,14,0,0,1-1.53,1.24,2.39,2.39,0,0,0-.84,3.21,5.56,5.56,0,0,0,1.68,1.83,13.76,13.76,0,0,0,1.78,1.62.3.3,0,0,0,.11.06c0,.28.36.55.39.86,0,.48-.18.83,0,1.39a3,3,0,0,0,.13.39,6.36,6.36,0,0,0-.3,1.44,2.18,2.18,0,0,0-.6,1,4.56,4.56,0,0,0-.1,1.18c-.3.23-.6.46-.89.72-2.35.25-2.92,4-.41,4.58a4.15,4.15,0,0,0,.33.35,4.35,4.35,0,0,0,.28,1.13,1.1,1.1,0,0,0,.09.14,3.17,3.17,0,0,0-.31.65l-.21.52-.09,0a1.49,1.49,0,0,0-.14.12c-2.72-.7-3.86,3.17-1.56,4.37a2.16,2.16,0,0,0,.2.51,2.2,2.2,0,0,0,.3.37,1.63,1.63,0,0,0,.29,1.28l.08.14h0a2.39,2.39,0,0,0-.28,1.54,1.82,1.82,0,0,0-.4.3,2.53,2.53,0,0,0-.65,1.44,4.08,4.08,0,0,0-1.25,1.43s0,0,0,0c-.63.35-.83.91-1.41,1.4-.42.36-1,.55-1.41.93s-.75.84-1.17,1.24c-2.18,2.08,1.13,5.39,3.32,3.31.89-.85,1.88-1.56,2.72-2.43a3.24,3.24,0,0,0,.76-.11A2.32,2.32,0,0,0,89.56,84.44ZM90,47.65l0,0Z" style="fill:#b25e00"/><path d="M110.21,69a3.36,3.36,0,0,0,.26-2.9,3.47,3.47,0,0,0-.08-3.21,4.63,4.63,0,0,0-1.9-3.8,4.39,4.39,0,0,0,.76-1.1,2.67,2.67,0,0,0,1.27-1.47,9.18,9.18,0,0,0,.24-1.39c0-.19,0-.32.06-.41s.11-.11.25-.35c1-1.7-.14-4.35-1.08-5.88-.48-.8-1.15-1.36-1.49-1.9a6.92,6.92,0,0,0-2-2.06,4.77,4.77,0,0,0-2-1.24l-.21-.3a3.68,3.68,0,0,0-1.2-1.22c-2.34-1.86-5.67,1.43-3.31,3.31a8.29,8.29,0,0,0,.72.63c.27.35.5.73.81,1.06a3.2,3.2,0,0,0,1.34.95l.32.08.09,0,.18.17a2.47,2.47,0,0,0,.68.48c.06.05.52.51.34.27.35.47.33.85.73,1.32s.75.56,1,.93a6.85,6.85,0,0,1,.32,1c0,.07.16.41.27.66a4,4,0,0,0-.44,1.69v0a3.09,3.09,0,0,0-.84.85l-.23.56c0,.06,0,.11,0,.15a6.17,6.17,0,0,1-1.19.4c-2.43.65-2,3.7,0,4.52.23.09.34.13.34.08.27.47.31,1,.82,1.44a2,2,0,0,0,.52.34l.07,0s.06.11.11.18l0,0a2.86,2.86,0,0,0,0,1.13,1.74,1.74,0,0,0,.28.58,2.31,2.31,0,0,0-.35.68,2.56,2.56,0,0,0,.06,1.4c0,.11.09.21.13.32a.87.87,0,0,1-.22.31c-1,.79.42-.24-.22.27a3.71,3.71,0,0,0-1.21,1.46,4.3,4.3,0,0,1-.71.36c-1.77.77-1.35,3.76.42,4.24l.24.19c.15.07.28.14.41.19a3.84,3.84,0,0,0,.06.75.13.13,0,0,0,.1,0,3.2,3.2,0,0,0-.66.76,1.9,1.9,0,0,0-.25,1,3.15,3.15,0,0,0-.61.54,2.74,2.74,0,0,0-.47.89l-.17.07a2.76,2.76,0,0,0-2.22.28c-1.37.85-1.68,3.28,0,4s5.15.38,6.31-1.44a5,5,0,0,0,.39-.91l.61-.52a2.23,2.23,0,0,0,.82-2.06,3.72,3.72,0,0,0,.71-1.55,8.79,8.79,0,0,0,0-3.54,4.81,4.81,0,0,0-.62-1.41A7.13,7.13,0,0,0,110.21,69Zm-3.07,10.73s0-.09,0-.13A.59.59,0,0,1,107.14,79.73Zm-4.92-1.47c-.13,0-.18-.06,0,0Z" style="fill:#b25e00"/><path d="M118.7,71.76c-.06.08-.37.43-.52.64l-.61.23c-2.87.89-1.64,5.41,1.25,4.52A6.17,6.17,0,0,0,122.15,75c.85-1,1.7-1.65,2-3a6.59,6.59,0,0,0-.81-5c.48-.59.91-1.23,1.31-1.8A8.3,8.3,0,0,0,125.93,60c-.2-3.79-2.82-6.19-6-7.84-2.66-1.41-5,2.63-2.36,4a6.74,6.74,0,0,1,2.6,1.76,9.54,9.54,0,0,1,.73,1,.92.92,0,0,0,0,.16,2.3,2.3,0,0,0,.24,1,3.5,3.5,0,0,1-.43,2.3,11.22,11.22,0,0,1-1.1,1.34,3.57,3.57,0,0,0-.5.72l-.17.1a2.36,2.36,0,0,0-.48,3.68c.79.78,1.41,1.51,1.07,2.66C119.74,70.44,118.94,71.46,118.7,71.76Z" style="fill:#b25e00"/><path d="M135.92,51.62a9.58,9.58,0,0,0,4.61-1.08,11.44,11.44,0,0,0,2.2-1.2l.1-.08.21-.11a7.66,7.66,0,0,0,1.37-.89c1.08-.91,2.09-1.83,3.18-2.71A19.77,19.77,0,0,0,149.31,44s.7-.89.57-.83c.25-.2.54-.37.78-.57a23.82,23.82,0,0,0,5.78-6.07c.49-.72.8-1.41,1.22-2.17a20.4,20.4,0,0,0,1.18-1.83,4.81,4.81,0,0,0,.35-1.45c0-.11,0-.19,0-.24s0,0,0-.06a4.11,4.11,0,0,0,.16-2.91c-.64-2.92-5.09-1.71-4.53,1.18a3,3,0,0,0-.32,1.36,2,2,0,0,1,0,.25,5.75,5.75,0,0,0-.39.49,17,17,0,0,0-1,2c-.26.45-.67.79-.95,1.22a7.81,7.81,0,0,1-.88,1.48c-.49.46-1,.77-1.5,1.3a20.57,20.57,0,0,1-2.68,2.32c-1,.74-1.63,1.81-2.6,2.58s-2,1.63-2.94,2.51l-.37.31-.57.24c-.58.3-1,.75-1.57,1-.26.13-1.85.77-1,.58a11.92,11.92,0,0,1-2.17.26C132.91,46.92,132.91,51.61,135.92,51.62Z" style="fill:#b25e00"/><path d="M155.78,47l-.14.24a3,3,0,0,0-.69.47c-.36.34-.59.82-.92,1.19a9.6,9.6,0,0,1-2.41,1.77c-.47.3-.53.63-.9.94-.55.47-.79.33-1.41.57-.4.15-.76.35-1.15.51-.56.23-1.06.65-1.58.91.28-.17-.86,0-1,.09a4.75,4.75,0,0,0-1,.52c-.84.25-1.8.41-2.64.59-1,.24-2,.7-3,1,.46-.15-1.05.09-1.29.17a10,10,0,0,0-1.72.8c-2.67,1.41-.31,5.46,2.36,4a3.73,3.73,0,0,1,1.28-.36,12.8,12.8,0,0,0,1.8-.63c.26-.1,2-.46,1-.34a8.44,8.44,0,0,0,1.86-.39c1.07-.39,2.17-.73,3.27-1a5.68,5.68,0,0,0,1.87-.78l.11-.08a3.71,3.71,0,0,0,.66-.24,1.76,1.76,0,0,0,.51-.23l.41-.09a5.3,5.3,0,0,0,1.73-.74,12.9,12.9,0,0,0,1.44-1.2c-.55.15-.48.1.2-.15a2.13,2.13,0,0,0,.75-.42,12,12,0,0,0,2.65-2.39c.14-.18.28-.36.41-.55,0,0,.15,0,.39-.2a3.24,3.24,0,0,0,1.25-1.63C161.19,46.67,157.15,44.3,155.78,47Z" style="fill:#b25e00"/><path d="M143.65,70.1c.73-.06,1.48-.16,2.22-.18-.34,0,1,.17,1,.16.41,0,.71,0,1.13,0a19.23,19.23,0,0,0,4.84.18,8.91,8.91,0,0,0,1.89.38c3,.26,3-4.42,0-4.69l-.3,0-.53-.24a4.37,4.37,0,0,0-2,0,11.79,11.79,0,0,1-2.44-.13,37,37,0,0,0-5.86-.21c-.84,0-1.59-.19-2.44-.19-.56,0-1.13.29-1.63.28s-.93-.23-1.44-.26a21.73,21.73,0,0,0-2.81.24,15,15,0,0,0-3.05.21c-2.91.78-1.68,5.3,1.24,4.52a19,19,0,0,1,2.62-.07,8.15,8.15,0,0,1,2.26,0,13.85,13.85,0,0,0,2.68-.23C141.89,69.87,142.74,70.17,143.65,70.1Z" style="fill:#b25e00"/><path d="M152,75.84a23,23,0,0,0-2.67-.74,12.2,12.2,0,0,0-1.26-.27h-.24l-.25-.12a6.86,6.86,0,0,0-2.71-.27c-.94,0-1.83-.22-2.78-.17-3,.16-3,4.84,0,4.68.79,0,1.55.14,2.35.17a4.88,4.88,0,0,0,1.08,0,1.38,1.38,0,0,0,.28-.07l.22.08c1.48.49,3,.68,4.53,1.14a33.06,33.06,0,0,1,4.12,1.35c.67.31,1.37.71,2,1-.78-.41.15.22.31.35.31.28.64.55,1,.82,2.28,2,5.6-1.35,3.31-3.31a24.25,24.25,0,0,0-4.24-3A24.56,24.56,0,0,0,152,75.84Z" style="fill:#b25e00"/><path d="M164.83,94.51a7.73,7.73,0,0,0-1.15-.64,2.38,2.38,0,0,0-.47-.65,2.29,2.29,0,0,0-1-.6,1.62,1.62,0,0,0-.46-.14c-.23-.22-.67-.59-.78-.68s-1.88-1-1.21-.58a28.43,28.43,0,0,0-5.24-3.09c-.89-.39-1.74-.89-2.65-1.29s-2.13-.45-3.15-.94a7.28,7.28,0,0,0-3.16-.89q-.84-.08-.09-.06a2.65,2.65,0,0,0-.95-.51,2.23,2.23,0,0,0-1.09,0c.44.22.41.21-.1-.06-2.68-1.37-5.05,2.67-2.37,4.05a5.41,5.41,0,0,0,1.69.7,1.57,1.57,0,0,0,.61,0l.23.14a4.14,4.14,0,0,0,1.63.38c.19,0,1,.15.8,0,1,.33,1.83.9,2.82,1.14a8.74,8.74,0,0,1,2.5,1.07c.89.52,1.85.81,2.78,1.26s1.59.93,2.45,1.4a3.13,3.13,0,0,0,.76.69c.14.08,1.5.64.76.17a19.88,19.88,0,0,0,2,1.39,2.5,2.5,0,0,0,.64.76c.55.43,1.27.58,1.86,1C165,100.27,167.3,96.22,164.83,94.51Z" style="fill:#b25e00"/><path d="M82.82,102.12c-.4-.28-.62-1-.85-1.38-.35-.64-.81-1.25-1.14-1.88-.54-1-1-2.45-1.65-3.58-1.48-2.63-5.53-.27-4.05,2.36,1.59,2.82,2.54,6.59,5.32,8.52C82.94,107.88,85.28,103.82,82.82,102.12Z" style="fill:#b25e00"/><path d="M94.29,100.18c-.56-1.4-1.05-2.79-1.72-4.15-1.33-2.71-5.37-.33-4,2.36.55,1.12,1,2.3,1.41,3.46s1.06,2.36,1.48,3.58c1,2.84,5.5,1.62,4.52-1.24C95.46,102.82,94.82,101.52,94.29,100.18Z" style="fill:#b25e00"/><path d="M106.1,97.64a8.44,8.44,0,0,0-3.37-4.8c-2.53-1.66-4.88,2.39-2.37,4,.94.62,1.15,1.89,1.51,2.88a13.34,13.34,0,0,1,1,3.44c.26,3,4.94,3,4.68,0A25.86,25.86,0,0,0,106.1,97.64Z" style="fill:#b25e00"/><path d="M114.41,91.07c-2-2.27-5.3,1.05-3.32,3.31a13.93,13.93,0,0,1,3.25,6.25c.63,2.94,5.15,1.7,4.52-1.25A19,19,0,0,0,114.41,91.07Z" style="fill:#b25e00"/><path d="M127.69,93.65l-.23-.17-.55-.4c-.06-.08-.18-.22-.21-.27a10,10,0,0,0-.64-.82,6.83,6.83,0,0,1-1-1.74,2.42,2.42,0,0,0-2.88-1.64,2.36,2.36,0,0,0-1.64,2.88,14.2,14.2,0,0,0,2,3.6,9.59,9.59,0,0,0,1.12,1.37,18.92,18.92,0,0,0,1.67,1.23,2.35,2.35,0,0,0,3.2-.84A2.39,2.39,0,0,0,127.69,93.65Z" style="fill:#b25e00"/><path d="M77.14,27.87a24,24,0,0,0,4.63-4A23.76,23.76,0,0,0,85.49,19c1.41-2.67-2.63-5-4-2.37a20.64,20.64,0,0,1-6.68,7.25C72.2,25.39,74.55,29.44,77.14,27.87Z" style="fill:#b25e00"/><path d="M90.7,28.54a13.35,13.35,0,0,1,4.2-4.42c2.53-1.61.19-5.67-2.37-4a18.34,18.34,0,0,0-5.88,6.1C85.16,28.8,89.2,31.16,90.7,28.54Z" style="fill:#b25e00"/><path d="M102.65,29a2.36,2.36,0,0,0,1.64-2.88,2.41,2.41,0,0,0-2.88-1.64c-3,.5-5.24,2.94-7.26,5s1.21,5.48,3.31,3.31C99,31.26,100.41,29.35,102.65,29Z" style="fill:#b25e00"/><path d="M103.62,38c3.3-1.62,7.14-2.53,9.46-5.57a2.36,2.36,0,0,0-.84-3.21A2.4,2.4,0,0,0,109,30c-.74,1-2.59,1.64-3.68,2.1-1.39.57-2.76,1.13-4.1,1.79C98.55,35.23,100.92,39.27,103.62,38Z" style="fill:#b25e00"/></svg>