<svg id="레이어_1" data-name="레이어 1" xmlns="http://www.w3.org/2000/svg" viewBox="0 0 62 180"><path d="M30.35,4.27c-.24,0-.19,0,0,0Z" style="fill:#1c1b1f"/><path d="M42.94,83.22A1.79,1.79,0,0,0,43,82a1.73,1.73,0,0,0,.09-2.24,1.5,1.5,0,0,0-.05-.78,3.24,3.24,0,0,0-.26-.56,1.69,1.69,0,0,0,.4-1.16,1.68,1.68,0,0,0,.05-1.54,1.79,1.79,0,0,0-.21-.8,1.67,1.67,0,0,0-.29-2.42,1.73,1.73,0,0,0,0-.75l-.08-.21a1.75,1.75,0,0,0,.2-.83,1.86,1.86,0,0,0-.23-2.67.84.84,0,0,0-.05-.17A1.82,1.82,0,0,0,43,65.54a1.92,1.92,0,0,0-.5-2.27,1.77,1.77,0,0,0,0-2,.91.91,0,0,0,0-.23,1.75,1.75,0,0,0,0-1.69l0-.22a1.69,1.69,0,0,0,.17-1.87,2,2,0,0,0-.92-1.64,1.88,1.88,0,0,0-.12-.3,1.64,1.64,0,0,0,.39-2.06,1.59,1.59,0,0,0-.15-1.46,3.79,3.79,0,0,0-.31-.37,1.49,1.49,0,0,0,0-.21v-.11a1.8,1.8,0,0,0-.09-2,2.05,2.05,0,0,0,.06-.49,1.39,1.39,0,0,0,.13-.44,1.73,1.73,0,0,0,.18-.86,2,2,0,0,0,0-.87,1.85,1.85,0,0,0-.24-.82,1.87,1.87,0,0,0,0-.88,1.82,1.82,0,0,0-.5-2.53.25.25,0,0,0,0-.09,1.37,1.37,0,0,0,.1-.52,1.87,1.87,0,0,0,.09-1.34,1.86,1.86,0,0,0-.29-1.69,2.11,2.11,0,0,0-.05-.35,1.84,1.84,0,0,0-.25-1.39,1.71,1.71,0,0,0,0-1.77,2.14,2.14,0,0,0-.26-.55,1.88,1.88,0,0,0-.41-1.47,1.72,1.72,0,0,0-.23-1.3,1.91,1.91,0,0,0-.12-2,1.71,1.71,0,0,0-.85-1.87,1.92,1.92,0,0,0-.11-2.13,1.27,1.27,0,0,0-.06-.18,2.86,2.86,0,0,0,.24-1.16,1.86,1.86,0,0,0-.53-1.25,1.52,1.52,0,0,0-.8-1.28,1.89,1.89,0,0,0,0-.41,1.81,1.81,0,0,0-.16-1.3,1.46,1.46,0,0,0-.21-.57,1.91,1.91,0,0,0-.47-1.06s0-.07,0-.1a1.81,1.81,0,0,0-.32-1.85l.11-.08a1.66,1.66,0,0,0,.13-2.3,1.56,1.56,0,0,0-.31-1h0a2,2,0,0,0-.78-1.48,1.22,1.22,0,0,0-.15-.17.93.93,0,0,1-.05-.1,1.94,1.94,0,0,0-.08-1,1.71,1.71,0,0,0,.13-1.08,1.87,1.87,0,0,0-.82-1.6A1.66,1.66,0,0,0,33.9,6,2,2,0,0,0,32.58,4a2.74,2.74,0,0,0-1.39,0,3.91,3.91,0,0,0-.54.14,1.56,1.56,0,0,1-.3.07l.54.07a1.94,1.94,0,0,0-2.22,1.93,1.55,1.55,0,0,0,.13,2.45,1.94,1.94,0,0,0,.45,2.2,1.63,1.63,0,0,0,.55,1.24,1.71,1.71,0,0,0-.08.43,1.6,1.6,0,0,0,1.06,2.29,1.7,1.7,0,0,0,.16.93,1.88,1.88,0,0,0,.22,2.77.23.23,0,0,0,.07.07l0,0a1.71,1.71,0,0,0,.09.3,1.58,1.58,0,0,0,0,1.05,1.84,1.84,0,0,0,.19,1,1.8,1.8,0,0,0,.29,1.8,1.65,1.65,0,0,0,.42.78,1.8,1.8,0,0,0,.43,2.24,1.72,1.72,0,0,0-.09.63,1.74,1.74,0,0,0,.53,2,1.83,1.83,0,0,0,0,1.2,1.82,1.82,0,0,0,.37,2,1.78,1.78,0,0,0,.16,1,1.75,1.75,0,0,0,.38.87,1.87,1.87,0,0,0,.15.32,1.85,1.85,0,0,0,.37,1.88c-.1.12-.21.24-.31.38a1.65,1.65,0,0,0,.17,2,1.88,1.88,0,0,0,.11,1.77,1.8,1.8,0,0,0,.11.77,2,2,0,0,0,.1.67,1.71,1.71,0,0,0,.14.74,1.86,1.86,0,0,0,.45,1.58,1.86,1.86,0,0,0,.36,2.16,1.94,1.94,0,0,0,.64,1.65,2.22,2.22,0,0,0,.37.44.58.58,0,0,0-.05.14l-.1.1-.23.11A1.78,1.78,0,0,0,35.89,51a1.87,1.87,0,0,0,.27,1,1.89,1.89,0,0,0-.09,2.3,2.15,2.15,0,0,0,0,.76,1.86,1.86,0,0,0,.24,1.61,1.9,1.9,0,0,0,.4,1.3,1.9,1.9,0,0,0-.14.4,1.71,1.71,0,0,0-.09,1.35,1.78,1.78,0,0,0,.09,1.51,2,2,0,0,0,.23,1.23,1.82,1.82,0,0,0,.12,1.19,1.81,1.81,0,0,0,.18,1.12,1.39,1.39,0,0,0,.06.4,2,2,0,0,0,.08,1.38A1.6,1.6,0,0,0,37,68.8a1.8,1.8,0,0,0,.17.51,1.69,1.69,0,0,0,0,1.91,2,2,0,0,0,0,1.09,2,2,0,0,0-.42,1.5,1.82,1.82,0,0,0,.45,1.63,2.49,2.49,0,0,0,.57.49c0,.09-.09.19-.13.28a1.43,1.43,0,0,0-.17.43,1.91,1.91,0,0,0-.61,2,1.55,1.55,0,0,0,.29,1.22,1.66,1.66,0,0,0,0,1.66,1.55,1.55,0,0,0,.3.88,1.82,1.82,0,0,0-.15,1.12,1.1,1.1,0,0,0,0,.18,1.92,1.92,0,0,0-.46,2.06,1.61,1.61,0,0,0,.17,2.13,2.76,2.76,0,0,0,.08.27,1.71,1.71,0,0,0,.19,2.62,2.1,2.1,0,0,0-.65,1.79,1.69,1.69,0,0,0,.09,1.89,1.92,1.92,0,0,0-.5,1.83,1.71,1.71,0,0,0,.07,1.24,1.93,1.93,0,0,0-.28,1.25,7.25,7.25,0,0,0,.32,2,1.87,1.87,0,0,0-.14,1,1.89,1.89,0,0,0-.44,2.09s0,.05,0,.08a1.84,1.84,0,0,0-.25,1,1.69,1.69,0,0,0,.54,2l-.05.12a1.81,1.81,0,0,0,.12,2.92,1.81,1.81,0,0,0-.71,2.85,1.64,1.64,0,0,0,.13.65,2.42,2.42,0,0,0-1,1,1.77,1.77,0,0,0-.08,1.6,1.88,1.88,0,0,0-.25.67,1.76,1.76,0,0,0,.07,1.93,1.83,1.83,0,0,0-.14.73,1.82,1.82,0,0,0-.39,2.38h0a1.86,1.86,0,0,0-.45,2.06,1.82,1.82,0,0,0-.38,1.21,2,2,0,0,0-.17,1.53,2.41,2.41,0,0,0,.38.79,1.88,1.88,0,0,0-.07.82,1.94,1.94,0,0,0-.49,1.44,1.79,1.79,0,0,0,0,.92,1.83,1.83,0,0,0-.28,1.14,2,2,0,0,0,.07.64,1.81,1.81,0,0,0-.56,1,2.16,2.16,0,0,0,0,1,1.82,1.82,0,0,0-.31,1.32v0a1.73,1.73,0,0,0-.45.88,1.76,1.76,0,0,0-.42,1.67,1.91,1.91,0,0,0,0,.89,1.67,1.67,0,0,0,0,.32,2.11,2.11,0,0,0-.09,1.06,1.81,1.81,0,0,0-.47,1.79.34.34,0,0,1,0,.1,1.74,1.74,0,0,0-.29,1.34,1.82,1.82,0,0,0-.62.71,1.8,1.8,0,0,0,.17,2,1.47,1.47,0,0,0-.55.71,1.78,1.78,0,0,0-.32,2.12h0l-.05.12a1.79,1.79,0,0,0-.37,2.54,1.45,1.45,0,0,0-.7,1.36,1.79,1.79,0,0,0-.34.64,2,2,0,0,0,.14,2.24.69.69,0,0,0-.05.13,1.56,1.56,0,0,0-.47.45,1.87,1.87,0,0,0-.7,2.44,1.77,1.77,0,0,0-.27.53,1.76,1.76,0,0,0-.67,1.73,1.64,1.64,0,0,0-.29,1.11l0,.17a1.59,1.59,0,0,0-.26.93,2.79,2.79,0,0,0,.08.55A1.85,1.85,0,0,0,24.3,167l.19.15,0,0a2,2,0,0,0-.81,1.23,1.77,1.77,0,0,0-.3,2.74l0,0a1.6,1.6,0,0,0-.23,1.32h-.3c-1.4.1-2.51,1.93-1.25,3a3.64,3.64,0,0,0,.71.47c.09.06.86.47.49.15a1.76,1.76,0,0,0,1.82.33h.23a1.89,1.89,0,0,0,.91-.33H26a2,2,0,0,0,1.77-1.62,1.23,1.23,0,0,0,.12-.37,2,2,0,0,0,.45-1.18h0a1.7,1.7,0,0,0,.17-.66,6.63,6.63,0,0,0,.38-1.83l0,0a1.68,1.68,0,0,0,.48-2.3,1.43,1.43,0,0,0-.3-1.28,2.55,2.55,0,0,0,.29-.48,1.68,1.68,0,0,0,.68-1.18,1.72,1.72,0,0,0,.94-2.52,1.39,1.39,0,0,0,0-.64,1.65,1.65,0,0,0,.49-2.59,1.73,1.73,0,0,0,.71-1.09,1.77,1.77,0,0,0,.47-.88,1.71,1.71,0,0,0,.47-1.87,1.74,1.74,0,0,0,.34-1.82,1.54,1.54,0,0,0,.4-1.55,2.3,2.3,0,0,0,0-1.42,1.53,1.53,0,0,0,.61-1.32,1.82,1.82,0,0,0,.09-.74,1.86,1.86,0,0,0,.36-.33,2,2,0,0,0,.49-1.34c0-.1,0-.2.07-.3a1.91,1.91,0,0,0,.15-2.05,2.94,2.94,0,0,0,0-.42,1.66,1.66,0,0,0,.33-.81,1.88,1.88,0,0,0,.36-1.62l0-.11a1.81,1.81,0,0,0,.42-2.08,1.83,1.83,0,0,0,.21-1.17v-.13a1.87,1.87,0,0,0,.72-1.7,2.51,2.51,0,0,0-.11-2.28,1.85,1.85,0,0,0,.28-1.7,1.78,1.78,0,0,0,.66-.77,2.05,2.05,0,0,0,.12-1.51,1.8,1.8,0,0,0,.45-1.56,2,2,0,0,0-.13-1.46,2.39,2.39,0,0,0-.21-.34,1.82,1.82,0,0,0,.48-1.87,1.33,1.33,0,0,0,0-1v0a1.72,1.72,0,0,0,.14-.81,1.76,1.76,0,0,0,.63-1.43,2.32,2.32,0,0,0,.22-.3,1.75,1.75,0,0,0,0-1.78,2.65,2.65,0,0,0-.27-.41v-.28a2,2,0,0,0-.1-.58l.25-.12a1.54,1.54,0,0,0,.86-1.57,1.82,1.82,0,0,0-.07-1.13A1.62,1.62,0,0,0,41,115a1.79,1.79,0,0,0,0-1.64,2,2,0,0,0-.45-1l.07,0a1.64,1.64,0,0,0,.77-2,1.78,1.78,0,0,0-.22-2.23l.09-.18a1.85,1.85,0,0,0,.25-2.39,1.83,1.83,0,0,0,.55-1.51,1.8,1.8,0,0,0-.2-2,1.25,1.25,0,0,0,.11-.5A1.87,1.87,0,0,0,42.17,99a.69.69,0,0,0-.05-.13,2.1,2.1,0,0,0,.66-1.72,1.59,1.59,0,0,0,0-1.44,1.74,1.74,0,0,0,0-1.23,1.8,1.8,0,0,0,0-1.23,1.61,1.61,0,0,0-.22-1.17,2.37,2.37,0,0,0-.09-.36,2.13,2.13,0,0,0,.36-.93,1.77,1.77,0,0,0,0-1.3,1.51,1.51,0,0,0-.6-1.89,2,2,0,0,0,.13-.31,1.92,1.92,0,0,0,.48-1.45,1.37,1.37,0,0,0,0-.19A1.89,1.89,0,0,0,42.94,83.22ZM22.64,176Z" style="fill:#1c1b1f"/></svg>